%TF.GenerationSoftware,KiCad,Pcbnew,9.0.1+1*%
%TF.CreationDate,2025-04-24T10:04:14-03:00*%
%TF.ProjectId,droninho,64726f6e-696e-4686-9f2e-6b696361645f,rev?*%
%TF.SameCoordinates,Original*%
%TF.FileFunction,Soldermask,Top*%
%TF.FilePolarity,Negative*%
%FSLAX46Y46*%
G04 Gerber Fmt 4.6, Leading zero omitted, Abs format (unit mm)*
G04 Created by KiCad (PCBNEW 9.0.1+1) date 2025-04-24 10:04:14*
%MOMM*%
%LPD*%
G01*
G04 APERTURE LIST*
G04 Aperture macros list*
%AMRoundRect*
0 Rectangle with rounded corners*
0 $1 Rounding radius*
0 $2 $3 $4 $5 $6 $7 $8 $9 X,Y pos of 4 corners*
0 Add a 4 corners polygon primitive as box body*
4,1,4,$2,$3,$4,$5,$6,$7,$8,$9,$2,$3,0*
0 Add four circle primitives for the rounded corners*
1,1,$1+$1,$2,$3*
1,1,$1+$1,$4,$5*
1,1,$1+$1,$6,$7*
1,1,$1+$1,$8,$9*
0 Add four rect primitives between the rounded corners*
20,1,$1+$1,$2,$3,$4,$5,0*
20,1,$1+$1,$4,$5,$6,$7,0*
20,1,$1+$1,$6,$7,$8,$9,0*
20,1,$1+$1,$8,$9,$2,$3,0*%
G04 Aperture macros list end*
%ADD10RoundRect,0.250000X-0.337500X-0.475000X0.337500X-0.475000X0.337500X0.475000X-0.337500X0.475000X0*%
%ADD11RoundRect,0.225000X0.375000X-0.225000X0.375000X0.225000X-0.375000X0.225000X-0.375000X-0.225000X0*%
%ADD12RoundRect,0.250000X0.325000X0.450000X-0.325000X0.450000X-0.325000X-0.450000X0.325000X-0.450000X0*%
%ADD13RoundRect,0.250000X0.450000X-0.350000X0.450000X0.350000X-0.450000X0.350000X-0.450000X-0.350000X0*%
%ADD14RoundRect,0.150000X0.587500X0.150000X-0.587500X0.150000X-0.587500X-0.150000X0.587500X-0.150000X0*%
%ADD15RoundRect,0.250000X-0.350000X-0.625000X0.350000X-0.625000X0.350000X0.625000X-0.350000X0.625000X0*%
%ADD16O,1.200000X1.750000*%
%ADD17RoundRect,0.250000X0.625000X-0.350000X0.625000X0.350000X-0.625000X0.350000X-0.625000X-0.350000X0*%
%ADD18O,1.750000X1.200000*%
%ADD19RoundRect,0.250000X-0.350000X-0.450000X0.350000X-0.450000X0.350000X0.450000X-0.350000X0.450000X0*%
%ADD20RoundRect,0.225000X0.225000X0.375000X-0.225000X0.375000X-0.225000X-0.375000X0.225000X-0.375000X0*%
%ADD21RoundRect,0.225000X-0.225000X-0.375000X0.225000X-0.375000X0.225000X0.375000X-0.225000X0.375000X0*%
%ADD22RoundRect,0.250000X0.337500X0.475000X-0.337500X0.475000X-0.337500X-0.475000X0.337500X-0.475000X0*%
%ADD23RoundRect,0.250000X0.350000X0.450000X-0.350000X0.450000X-0.350000X-0.450000X0.350000X-0.450000X0*%
%ADD24C,2.600000*%
%ADD25C,4.400000*%
%ADD26RoundRect,0.150000X-0.587500X-0.150000X0.587500X-0.150000X0.587500X0.150000X-0.587500X0.150000X0*%
%ADD27RoundRect,0.250000X-0.325000X-0.450000X0.325000X-0.450000X0.325000X0.450000X-0.325000X0.450000X0*%
%ADD28RoundRect,0.250000X-0.625000X0.350000X-0.625000X-0.350000X0.625000X-0.350000X0.625000X0.350000X0*%
%ADD29RoundRect,0.375000X0.375000X-0.625000X0.375000X0.625000X-0.375000X0.625000X-0.375000X-0.625000X0*%
%ADD30RoundRect,0.500000X1.400000X-0.500000X1.400000X0.500000X-1.400000X0.500000X-1.400000X-0.500000X0*%
%ADD31RoundRect,0.250000X0.450000X-0.325000X0.450000X0.325000X-0.450000X0.325000X-0.450000X-0.325000X0*%
%ADD32RoundRect,0.225000X-0.375000X0.225000X-0.375000X-0.225000X0.375000X-0.225000X0.375000X0.225000X0*%
G04 APERTURE END LIST*
D10*
%TO.C,C2*%
X69620000Y-66280000D03*
X71695000Y-66280000D03*
%TD*%
D11*
%TO.C,D8*%
X71690000Y-76010000D03*
X71690000Y-72710000D03*
%TD*%
D12*
%TO.C,D5*%
X63400000Y-70960000D03*
X61350000Y-70960000D03*
%TD*%
D13*
%TO.C,R2*%
X60310000Y-63020000D03*
X60310000Y-61020000D03*
%TD*%
D14*
%TO.C,Q1*%
X54195000Y-63080000D03*
X54195000Y-61180000D03*
X52320000Y-62130000D03*
%TD*%
%TO.C,Q4*%
X54195000Y-68380000D03*
X54195000Y-66480000D03*
X52320000Y-67430000D03*
%TD*%
D15*
%TO.C,J1*%
X59960000Y-54440000D03*
D16*
X61960000Y-54440000D03*
X63960000Y-54440000D03*
X65960000Y-54440000D03*
X67960000Y-54440000D03*
X69960000Y-54440000D03*
%TD*%
D17*
%TO.C,J2*%
X53150000Y-57520000D03*
D18*
X53150000Y-55520000D03*
%TD*%
D19*
%TO.C,R1*%
X62920000Y-68880000D03*
X64920000Y-68880000D03*
%TD*%
D20*
%TO.C,D6*%
X60587500Y-58940000D03*
X57287500Y-58940000D03*
%TD*%
D21*
%TO.C,D7*%
X69460000Y-58960000D03*
X72760000Y-58960000D03*
%TD*%
D22*
%TO.C,C1*%
X60295000Y-66080000D03*
X58220000Y-66080000D03*
%TD*%
D23*
%TO.C,R5*%
X59120000Y-68780000D03*
X57120000Y-68780000D03*
%TD*%
%TO.C,R4*%
X72920000Y-68780000D03*
X70920000Y-68780000D03*
%TD*%
D24*
%TO.C,H3*%
X62220000Y-74580000D03*
D25*
X62220000Y-74580000D03*
%TD*%
D17*
%TO.C,J5*%
X53110000Y-74440000D03*
D18*
X53110000Y-72440000D03*
%TD*%
D24*
%TO.C,H4*%
X68020000Y-74580000D03*
D25*
X68020000Y-74580000D03*
%TD*%
D26*
%TO.C,Q2*%
X75315000Y-61260000D03*
X75315000Y-63160000D03*
X77190000Y-62210000D03*
%TD*%
D27*
%TO.C,D4*%
X69130000Y-70970000D03*
X71180000Y-70970000D03*
%TD*%
D26*
%TO.C,Q3*%
X75445000Y-66560000D03*
X75445000Y-68460000D03*
X77320000Y-67510000D03*
%TD*%
D28*
%TO.C,J3*%
X76890000Y-55570000D03*
D18*
X76890000Y-57570000D03*
%TD*%
D13*
%TO.C,R3*%
X69710000Y-63050000D03*
X69710000Y-61050000D03*
%TD*%
D28*
%TO.C,J4*%
X77000000Y-72480000D03*
D18*
X77000000Y-74480000D03*
%TD*%
D29*
%TO.C,U1*%
X62720000Y-66480000D03*
X65020000Y-66480000D03*
D30*
X65020000Y-60180000D03*
D29*
X67320000Y-66480000D03*
%TD*%
D31*
%TO.C,D3*%
X71750000Y-63060000D03*
X71750000Y-61010000D03*
%TD*%
%TO.C,D2*%
X58150000Y-63030000D03*
X58150000Y-60980000D03*
%TD*%
D12*
%TO.C,D1*%
X68945000Y-68780000D03*
X66895000Y-68780000D03*
%TD*%
D32*
%TO.C,D9*%
X58570000Y-71890000D03*
X58570000Y-75190000D03*
%TD*%
M02*
