%TF.GenerationSoftware,KiCad,Pcbnew,9.0.1+1*%
%TF.CreationDate,2025-04-24T10:04:14-03:00*%
%TF.ProjectId,droninho,64726f6e-696e-4686-9f2e-6b696361645f,rev?*%
%TF.SameCoordinates,Original*%
%TF.FileFunction,Copper,L1,Top*%
%TF.FilePolarity,Positive*%
%FSLAX46Y46*%
G04 Gerber Fmt 4.6, Leading zero omitted, Abs format (unit mm)*
G04 Created by KiCad (PCBNEW 9.0.1+1) date 2025-04-24 10:04:14*
%MOMM*%
%LPD*%
G01*
G04 APERTURE LIST*
G04 Aperture macros list*
%AMRoundRect*
0 Rectangle with rounded corners*
0 $1 Rounding radius*
0 $2 $3 $4 $5 $6 $7 $8 $9 X,Y pos of 4 corners*
0 Add a 4 corners polygon primitive as box body*
4,1,4,$2,$3,$4,$5,$6,$7,$8,$9,$2,$3,0*
0 Add four circle primitives for the rounded corners*
1,1,$1+$1,$2,$3*
1,1,$1+$1,$4,$5*
1,1,$1+$1,$6,$7*
1,1,$1+$1,$8,$9*
0 Add four rect primitives between the rounded corners*
20,1,$1+$1,$2,$3,$4,$5,0*
20,1,$1+$1,$4,$5,$6,$7,0*
20,1,$1+$1,$6,$7,$8,$9,0*
20,1,$1+$1,$8,$9,$2,$3,0*%
G04 Aperture macros list end*
%TA.AperFunction,SMDPad,CuDef*%
%ADD10RoundRect,0.250000X-0.337500X-0.475000X0.337500X-0.475000X0.337500X0.475000X-0.337500X0.475000X0*%
%TD*%
%TA.AperFunction,SMDPad,CuDef*%
%ADD11RoundRect,0.225000X0.375000X-0.225000X0.375000X0.225000X-0.375000X0.225000X-0.375000X-0.225000X0*%
%TD*%
%TA.AperFunction,SMDPad,CuDef*%
%ADD12RoundRect,0.250000X0.325000X0.450000X-0.325000X0.450000X-0.325000X-0.450000X0.325000X-0.450000X0*%
%TD*%
%TA.AperFunction,SMDPad,CuDef*%
%ADD13RoundRect,0.250000X0.450000X-0.350000X0.450000X0.350000X-0.450000X0.350000X-0.450000X-0.350000X0*%
%TD*%
%TA.AperFunction,SMDPad,CuDef*%
%ADD14RoundRect,0.150000X0.587500X0.150000X-0.587500X0.150000X-0.587500X-0.150000X0.587500X-0.150000X0*%
%TD*%
%TA.AperFunction,ComponentPad*%
%ADD15RoundRect,0.250000X-0.350000X-0.625000X0.350000X-0.625000X0.350000X0.625000X-0.350000X0.625000X0*%
%TD*%
%TA.AperFunction,ComponentPad*%
%ADD16O,1.200000X1.750000*%
%TD*%
%TA.AperFunction,ComponentPad*%
%ADD17RoundRect,0.250000X0.625000X-0.350000X0.625000X0.350000X-0.625000X0.350000X-0.625000X-0.350000X0*%
%TD*%
%TA.AperFunction,ComponentPad*%
%ADD18O,1.750000X1.200000*%
%TD*%
%TA.AperFunction,SMDPad,CuDef*%
%ADD19RoundRect,0.250000X-0.350000X-0.450000X0.350000X-0.450000X0.350000X0.450000X-0.350000X0.450000X0*%
%TD*%
%TA.AperFunction,SMDPad,CuDef*%
%ADD20RoundRect,0.225000X0.225000X0.375000X-0.225000X0.375000X-0.225000X-0.375000X0.225000X-0.375000X0*%
%TD*%
%TA.AperFunction,SMDPad,CuDef*%
%ADD21RoundRect,0.225000X-0.225000X-0.375000X0.225000X-0.375000X0.225000X0.375000X-0.225000X0.375000X0*%
%TD*%
%TA.AperFunction,SMDPad,CuDef*%
%ADD22RoundRect,0.250000X0.337500X0.475000X-0.337500X0.475000X-0.337500X-0.475000X0.337500X-0.475000X0*%
%TD*%
%TA.AperFunction,SMDPad,CuDef*%
%ADD23RoundRect,0.250000X0.350000X0.450000X-0.350000X0.450000X-0.350000X-0.450000X0.350000X-0.450000X0*%
%TD*%
%TA.AperFunction,ComponentPad*%
%ADD24C,2.600000*%
%TD*%
%TA.AperFunction,ConnectorPad*%
%ADD25C,4.400000*%
%TD*%
%TA.AperFunction,SMDPad,CuDef*%
%ADD26RoundRect,0.150000X-0.587500X-0.150000X0.587500X-0.150000X0.587500X0.150000X-0.587500X0.150000X0*%
%TD*%
%TA.AperFunction,SMDPad,CuDef*%
%ADD27RoundRect,0.250000X-0.325000X-0.450000X0.325000X-0.450000X0.325000X0.450000X-0.325000X0.450000X0*%
%TD*%
%TA.AperFunction,ComponentPad*%
%ADD28RoundRect,0.250000X-0.625000X0.350000X-0.625000X-0.350000X0.625000X-0.350000X0.625000X0.350000X0*%
%TD*%
%TA.AperFunction,SMDPad,CuDef*%
%ADD29RoundRect,0.375000X0.375000X-0.625000X0.375000X0.625000X-0.375000X0.625000X-0.375000X-0.625000X0*%
%TD*%
%TA.AperFunction,SMDPad,CuDef*%
%ADD30RoundRect,0.500000X1.400000X-0.500000X1.400000X0.500000X-1.400000X0.500000X-1.400000X-0.500000X0*%
%TD*%
%TA.AperFunction,SMDPad,CuDef*%
%ADD31RoundRect,0.250000X0.450000X-0.325000X0.450000X0.325000X-0.450000X0.325000X-0.450000X-0.325000X0*%
%TD*%
%TA.AperFunction,SMDPad,CuDef*%
%ADD32RoundRect,0.225000X-0.375000X0.225000X-0.375000X-0.225000X0.375000X-0.225000X0.375000X0.225000X0*%
%TD*%
%TA.AperFunction,ViaPad*%
%ADD33C,0.800000*%
%TD*%
%TA.AperFunction,Conductor*%
%ADD34C,0.500000*%
%TD*%
%TA.AperFunction,Conductor*%
%ADD35C,0.250000*%
%TD*%
G04 APERTURE END LIST*
D10*
%TO.P,C2,1*%
%TO.N,/+3.3V*%
X69620000Y-66280000D03*
%TO.P,C2,2*%
%TO.N,GND*%
X71695000Y-66280000D03*
%TD*%
D11*
%TO.P,D8,1,K*%
%TO.N,/+3.3V*%
X71690000Y-76010000D03*
%TO.P,D8,2,A*%
%TO.N,/M3-*%
X71690000Y-72710000D03*
%TD*%
D12*
%TO.P,D5,1,K*%
%TO.N,GND*%
X63400000Y-70960000D03*
%TO.P,D5,2,A*%
%TO.N,Net-(D5-A)*%
X61350000Y-70960000D03*
%TD*%
D13*
%TO.P,R2,1*%
%TO.N,/PWM1*%
X60310000Y-63020000D03*
%TO.P,R2,2*%
%TO.N,Net-(D2-A)*%
X60310000Y-61020000D03*
%TD*%
D14*
%TO.P,Q1,1,G*%
%TO.N,/PWM1*%
X54195000Y-63080000D03*
%TO.P,Q1,2,S*%
%TO.N,GND*%
X54195000Y-61180000D03*
%TO.P,Q1,3,D*%
%TO.N,/M1-*%
X52320000Y-62130000D03*
%TD*%
%TO.P,Q4,1,G*%
%TO.N,/PWM4*%
X54195000Y-68380000D03*
%TO.P,Q4,2,S*%
%TO.N,GND*%
X54195000Y-66480000D03*
%TO.P,Q4,3,D*%
%TO.N,/M4-*%
X52320000Y-67430000D03*
%TD*%
D15*
%TO.P,J1,1,Pin_1*%
%TO.N,/+3.3V*%
X59960000Y-54440000D03*
D16*
%TO.P,J1,2,Pin_2*%
%TO.N,GND*%
X61960000Y-54440000D03*
%TO.P,J1,3,Pin_3*%
%TO.N,/PWM1*%
X63960000Y-54440000D03*
%TO.P,J1,4,Pin_4*%
%TO.N,/PWM2*%
X65960000Y-54440000D03*
%TO.P,J1,5,Pin_5*%
%TO.N,/PWM3*%
X67960000Y-54440000D03*
%TO.P,J1,6,Pin_6*%
%TO.N,/PWM4*%
X69960000Y-54440000D03*
%TD*%
D17*
%TO.P,J2,1,Pin_1*%
%TO.N,/M1-*%
X53150000Y-57520000D03*
D18*
%TO.P,J2,2,Pin_2*%
%TO.N,/+3.3V*%
X53150000Y-55520000D03*
%TD*%
D19*
%TO.P,R1,1*%
%TO.N,/BAT+*%
X62920000Y-68880000D03*
%TO.P,R1,2*%
%TO.N,Net-(D1-A)*%
X64920000Y-68880000D03*
%TD*%
D20*
%TO.P,D6,1,K*%
%TO.N,/+3.3V*%
X60587500Y-58940000D03*
%TO.P,D6,2,A*%
%TO.N,/M1-*%
X57287500Y-58940000D03*
%TD*%
D21*
%TO.P,D7,1,K*%
%TO.N,/+3.3V*%
X69460000Y-58960000D03*
%TO.P,D7,2,A*%
%TO.N,/M2-*%
X72760000Y-58960000D03*
%TD*%
D22*
%TO.P,C1,1*%
%TO.N,/BAT+*%
X60295000Y-66080000D03*
%TO.P,C1,2*%
%TO.N,GND*%
X58220000Y-66080000D03*
%TD*%
D23*
%TO.P,R5,1*%
%TO.N,/PWM4*%
X59120000Y-68780000D03*
%TO.P,R5,2*%
%TO.N,Net-(D5-A)*%
X57120000Y-68780000D03*
%TD*%
%TO.P,R4,1*%
%TO.N,/PWM3*%
X72920000Y-68780000D03*
%TO.P,R4,2*%
%TO.N,Net-(D4-A)*%
X70920000Y-68780000D03*
%TD*%
D24*
%TO.P,H3,1,1*%
%TO.N,/BAT+*%
X62220000Y-74580000D03*
D25*
X62220000Y-74580000D03*
%TD*%
D17*
%TO.P,J5,1,Pin_1*%
%TO.N,/M4-*%
X53110000Y-74440000D03*
D18*
%TO.P,J5,2,Pin_2*%
%TO.N,/+3.3V*%
X53110000Y-72440000D03*
%TD*%
D24*
%TO.P,H4,1,1*%
%TO.N,GND*%
X68020000Y-74580000D03*
D25*
X68020000Y-74580000D03*
%TD*%
D26*
%TO.P,Q2,1,G*%
%TO.N,/PWM2*%
X75315000Y-61260000D03*
%TO.P,Q2,2,S*%
%TO.N,GND*%
X75315000Y-63160000D03*
%TO.P,Q2,3,D*%
%TO.N,/M2-*%
X77190000Y-62210000D03*
%TD*%
D27*
%TO.P,D4,1,K*%
%TO.N,GND*%
X69130000Y-70970000D03*
%TO.P,D4,2,A*%
%TO.N,Net-(D4-A)*%
X71180000Y-70970000D03*
%TD*%
D26*
%TO.P,Q3,1,G*%
%TO.N,/PWM3*%
X75445000Y-66560000D03*
%TO.P,Q3,2,S*%
%TO.N,GND*%
X75445000Y-68460000D03*
%TO.P,Q3,3,D*%
%TO.N,/M3-*%
X77320000Y-67510000D03*
%TD*%
D28*
%TO.P,J3,1,Pin_1*%
%TO.N,/M2-*%
X76890000Y-55570000D03*
D18*
%TO.P,J3,2,Pin_2*%
%TO.N,/+3.3V*%
X76890000Y-57570000D03*
%TD*%
D13*
%TO.P,R3,1*%
%TO.N,/PWM2*%
X69710000Y-63050000D03*
%TO.P,R3,2*%
%TO.N,Net-(D3-A)*%
X69710000Y-61050000D03*
%TD*%
D28*
%TO.P,J4,1,Pin_1*%
%TO.N,/M3-*%
X77000000Y-72480000D03*
D18*
%TO.P,J4,2,Pin_2*%
%TO.N,/+3.3V*%
X77000000Y-74480000D03*
%TD*%
D29*
%TO.P,U1,1,GND*%
%TO.N,GND*%
X62720000Y-66480000D03*
%TO.P,U1,2,VO*%
%TO.N,/+3.3V*%
X65020000Y-66480000D03*
D30*
X65020000Y-60180000D03*
D29*
%TO.P,U1,3,VI*%
%TO.N,/BAT+*%
X67320000Y-66480000D03*
%TD*%
D31*
%TO.P,D3,1,K*%
%TO.N,GND*%
X71750000Y-63060000D03*
%TO.P,D3,2,A*%
%TO.N,Net-(D3-A)*%
X71750000Y-61010000D03*
%TD*%
%TO.P,D2,1,K*%
%TO.N,GND*%
X58150000Y-63030000D03*
%TO.P,D2,2,A*%
%TO.N,Net-(D2-A)*%
X58150000Y-60980000D03*
%TD*%
D12*
%TO.P,D1,1,K*%
%TO.N,GND*%
X68945000Y-68780000D03*
%TO.P,D1,2,A*%
%TO.N,Net-(D1-A)*%
X66895000Y-68780000D03*
%TD*%
D32*
%TO.P,D9,1,K*%
%TO.N,/+3.3V*%
X58570000Y-71890000D03*
%TO.P,D9,2,A*%
%TO.N,/M4-*%
X58570000Y-75190000D03*
%TD*%
D33*
%TO.N,GND*%
X56370000Y-59990000D03*
X63883152Y-65240000D03*
X56280000Y-65240000D03*
X68020000Y-69820000D03*
X56280000Y-63040000D03*
X56390000Y-53450000D03*
%TO.N,/PWM3*%
X73520000Y-66500000D03*
X74110000Y-69320000D03*
%TO.N,/PWM4*%
X58080000Y-67580000D03*
%TO.N,/BAT+*%
X60320000Y-72590000D03*
X68200000Y-67460000D03*
X60980000Y-68870000D03*
X65380000Y-64390000D03*
%TO.N,/+3.3V*%
X72850000Y-57350000D03*
X56890000Y-70750000D03*
X69470000Y-64720000D03*
X65030000Y-58470000D03*
%TD*%
D34*
%TO.N,/M1-*%
X52320000Y-58350000D02*
X53150000Y-57520000D01*
X53150000Y-57520000D02*
X55967500Y-57520000D01*
X55967500Y-57520000D02*
X57287500Y-58840000D01*
X52320000Y-62130000D02*
X52320000Y-58350000D01*
%TO.N,/M2-*%
X77190000Y-61401978D02*
X74748022Y-58960000D01*
X73665000Y-58795000D02*
X76890000Y-55570000D01*
X72760000Y-58960000D02*
X73500000Y-58960000D01*
X74748022Y-58960000D02*
X73500000Y-58960000D01*
X77190000Y-62210000D02*
X77190000Y-61401978D01*
X73500000Y-58960000D02*
X73665000Y-58795000D01*
%TO.N,/M3-*%
X71920000Y-72480000D02*
X71690000Y-72710000D01*
X77000000Y-67800000D02*
X77000000Y-72480000D01*
X77320000Y-67480000D02*
X77000000Y-67800000D01*
X77000000Y-72480000D02*
X71920000Y-72480000D01*
%TO.N,/M4-*%
X51684000Y-68066000D02*
X52320000Y-67430000D01*
X57820000Y-74440000D02*
X58570000Y-75190000D01*
X51684000Y-73014000D02*
X51684000Y-68066000D01*
X53110000Y-74440000D02*
X57820000Y-74440000D01*
X53110000Y-74440000D02*
X51684000Y-73014000D01*
%TO.N,GND*%
X75215000Y-63060000D02*
X75315000Y-63160000D01*
X56370000Y-61110000D02*
X56300000Y-61180000D01*
X63600000Y-70870000D02*
X63560000Y-70910000D01*
X71750000Y-66225000D02*
X71695000Y-66280000D01*
X60634000Y-53114000D02*
X56726000Y-53114000D01*
X68945000Y-68780000D02*
X68945000Y-68895000D01*
X61960000Y-54440000D02*
X60634000Y-53114000D01*
X68945000Y-68895000D02*
X68020000Y-69820000D01*
X69045000Y-70870000D02*
X63600000Y-70870000D01*
X71695000Y-66280000D02*
X72766000Y-67351000D01*
X56300000Y-61180000D02*
X58150000Y-63030000D01*
X56280000Y-63040000D02*
X58140000Y-63040000D01*
X63883152Y-65240000D02*
X63883152Y-65316848D01*
D35*
X62069000Y-67131000D02*
X62720000Y-66480000D01*
D34*
X56726000Y-53114000D02*
X56390000Y-53450000D01*
X54195000Y-61180000D02*
X56300000Y-61180000D01*
D35*
X58220000Y-63100000D02*
X58150000Y-63030000D01*
D34*
X74366000Y-67351000D02*
X75445000Y-68430000D01*
X57380000Y-65240000D02*
X58220000Y-66080000D01*
X57820000Y-66480000D02*
X58220000Y-66080000D01*
D35*
X58150000Y-66010000D02*
X58220000Y-66080000D01*
D34*
X72766000Y-67351000D02*
X74366000Y-67351000D01*
X58140000Y-63040000D02*
X58150000Y-63030000D01*
X56370000Y-59990000D02*
X56370000Y-61110000D01*
X63883152Y-65316848D02*
X62720000Y-66480000D01*
X71750000Y-63060000D02*
X75215000Y-63060000D01*
X71750000Y-63060000D02*
X71750000Y-66225000D01*
X68020000Y-71895000D02*
X69045000Y-70870000D01*
X68945000Y-68780000D02*
X71445000Y-66280000D01*
X68020000Y-74580000D02*
X68020000Y-71895000D01*
X54195000Y-66480000D02*
X57820000Y-66480000D01*
X56280000Y-65240000D02*
X57380000Y-65240000D01*
X71445000Y-66280000D02*
X71695000Y-66280000D01*
%TO.N,/PWM1*%
X63960000Y-57873708D02*
X61461000Y-60372708D01*
X61461000Y-60372708D02*
X61461000Y-61869000D01*
X55171000Y-64056000D02*
X59274000Y-64056000D01*
X63960000Y-54440000D02*
X63960000Y-57873708D01*
X54195000Y-63080000D02*
X55171000Y-64056000D01*
X59274000Y-64056000D02*
X60310000Y-63020000D01*
X61461000Y-61869000D02*
X60310000Y-63020000D01*
%TO.N,/PWM2*%
X67371000Y-55851000D02*
X67371000Y-60711000D01*
X75380000Y-61540000D02*
X74885000Y-62035000D01*
X70725000Y-62035000D02*
X69710000Y-63050000D01*
X74885000Y-62035000D02*
X70725000Y-62035000D01*
X65960000Y-54440000D02*
X67371000Y-55851000D01*
X67371000Y-60711000D02*
X69710000Y-63050000D01*
%TO.N,/PWM3*%
X73520000Y-66500000D02*
X75415000Y-66500000D01*
X75415000Y-66500000D02*
X75445000Y-66530000D01*
X72920000Y-68780000D02*
X73570000Y-68780000D01*
X73570000Y-68780000D02*
X74110000Y-69320000D01*
%TO.N,/PWM4*%
X54195000Y-68380000D02*
X54995000Y-67580000D01*
X54995000Y-67580000D02*
X58080000Y-67580000D01*
X59000000Y-68780000D02*
X59120000Y-68780000D01*
X59120000Y-68780000D02*
X59120000Y-68620000D01*
X59120000Y-68620000D02*
X58080000Y-67580000D01*
%TO.N,Net-(D1-A)*%
X66795000Y-68880000D02*
X66895000Y-68780000D01*
X64920000Y-68880000D02*
X66795000Y-68880000D01*
%TO.N,Net-(D2-A)*%
X58150000Y-60980000D02*
X60270000Y-60980000D01*
X60270000Y-60980000D02*
X60310000Y-61020000D01*
%TO.N,Net-(D3-A)*%
X69710000Y-61050000D02*
X71710000Y-61050000D01*
X71710000Y-61050000D02*
X71750000Y-61010000D01*
%TO.N,Net-(D4-A)*%
X70920000Y-68780000D02*
X70920000Y-70695000D01*
X70920000Y-70695000D02*
X71095000Y-70870000D01*
%TO.N,/BAT+*%
X62910000Y-68870000D02*
X62920000Y-68880000D01*
X60980000Y-66051860D02*
X62641860Y-64390000D01*
X60980000Y-66765000D02*
X60295000Y-66080000D01*
D35*
X60295000Y-66080000D02*
X60295000Y-66255000D01*
D34*
X60980000Y-68870000D02*
X60980000Y-66051860D01*
X62220000Y-74580000D02*
X62220000Y-74490000D01*
X62220000Y-74490000D02*
X60320000Y-72590000D01*
X62641860Y-64390000D02*
X65380000Y-64390000D01*
X68200000Y-67360000D02*
X67320000Y-66480000D01*
X60980000Y-68870000D02*
X62910000Y-68870000D01*
X68200000Y-67460000D02*
X68200000Y-67360000D01*
X60980000Y-68870000D02*
X60980000Y-66765000D01*
%TO.N,/+3.3V*%
X59960000Y-54440000D02*
X58880000Y-55520000D01*
X65020000Y-58480000D02*
X65030000Y-58470000D01*
X66780000Y-61940000D02*
X66780000Y-64720000D01*
X65020000Y-60180000D02*
X65020000Y-58480000D01*
X76890000Y-57570000D02*
X78608500Y-59288500D01*
X65020000Y-60180000D02*
X66780000Y-61940000D01*
X53110000Y-72440000D02*
X58020000Y-72440000D01*
X78608500Y-59288500D02*
X78608500Y-73696500D01*
X69620000Y-64870000D02*
X69470000Y-64720000D01*
X58030000Y-71890000D02*
X56890000Y-70750000D01*
X73220000Y-74480000D02*
X71690000Y-76010000D01*
X65020000Y-66480000D02*
X66780000Y-64720000D01*
X60587500Y-57227500D02*
X58880000Y-55520000D01*
X69620000Y-66280000D02*
X69620000Y-64870000D01*
X77825000Y-74480000D02*
X77000000Y-74480000D01*
X60587500Y-58840000D02*
X60587500Y-57227500D01*
X77000000Y-74480000D02*
X73220000Y-74480000D01*
X71070000Y-57350000D02*
X72850000Y-57350000D01*
X78608500Y-73696500D02*
X77825000Y-74480000D01*
X58880000Y-55520000D02*
X53150000Y-55520000D01*
X69460000Y-58960000D02*
X71070000Y-57350000D01*
X58570000Y-71890000D02*
X58030000Y-71890000D01*
X58020000Y-72440000D02*
X58570000Y-71890000D01*
X66780000Y-64720000D02*
X69470000Y-64720000D01*
%TO.N,Net-(D5-A)*%
X57120000Y-68780000D02*
X59250000Y-70910000D01*
X59250000Y-70910000D02*
X61510000Y-70910000D01*
%TD*%
%TA.AperFunction,Conductor*%
%TO.N,GND*%
G36*
X64934053Y-64894459D02*
G01*
X64948081Y-64893591D01*
X64981031Y-64906240D01*
X64985348Y-64908651D01*
X65071873Y-64966465D01*
X65137649Y-64993710D01*
X65143969Y-64997240D01*
X65163568Y-65017217D01*
X65185362Y-65034779D01*
X65187705Y-65041819D01*
X65192900Y-65047114D01*
X65198587Y-65074514D01*
X65207427Y-65101073D01*
X65205592Y-65108261D01*
X65207100Y-65115526D01*
X65197069Y-65141653D01*
X65190148Y-65168773D01*
X65184717Y-65173829D01*
X65182059Y-65180754D01*
X65159497Y-65197309D01*
X65139011Y-65216384D01*
X65131709Y-65217701D01*
X65125729Y-65222090D01*
X65083506Y-65229500D01*
X64581849Y-65229500D01*
X64581824Y-65229501D01*
X64546372Y-65232291D01*
X64394614Y-65276380D01*
X64394609Y-65276382D01*
X64258583Y-65356827D01*
X64258574Y-65356834D01*
X64146834Y-65468574D01*
X64146830Y-65468580D01*
X64118039Y-65517263D01*
X64066969Y-65564946D01*
X63998228Y-65577449D01*
X63933638Y-65550803D01*
X63900219Y-65509236D01*
X63836607Y-65380974D01*
X63717367Y-65232633D01*
X63717366Y-65232632D01*
X63566232Y-65111147D01*
X63526313Y-65053804D01*
X63523733Y-64983982D01*
X63559312Y-64923849D01*
X63621752Y-64892497D01*
X63643919Y-64890500D01*
X64920568Y-64890500D01*
X64934053Y-64894459D01*
G37*
%TD.AperFunction*%
%TA.AperFunction,Conductor*%
G36*
X62210000Y-55789115D02*
G01*
X62217584Y-55787914D01*
X62382255Y-55734408D01*
X62536524Y-55655804D01*
X62676602Y-55554032D01*
X62799032Y-55431602D01*
X62900804Y-55291524D01*
X62979411Y-55137251D01*
X62981271Y-55132760D01*
X62982475Y-55133258D01*
X63018540Y-55080512D01*
X63082898Y-55053311D01*
X63151745Y-55065222D01*
X63203223Y-55112464D01*
X63206254Y-55117798D01*
X63299372Y-55257160D01*
X63299373Y-55257161D01*
X63299374Y-55257162D01*
X63417838Y-55375626D01*
X63417840Y-55375627D01*
X63422146Y-55379933D01*
X63420361Y-55381717D01*
X63453490Y-55430329D01*
X63459500Y-55468464D01*
X63459500Y-57615032D01*
X63439815Y-57682071D01*
X63423181Y-57702713D01*
X61427130Y-59698763D01*
X61365807Y-59732248D01*
X61296115Y-59727264D01*
X61240182Y-59685392D01*
X61215765Y-59619928D01*
X61230617Y-59551655D01*
X61230617Y-59551654D01*
X61234122Y-59545233D01*
X61234128Y-59545226D01*
X61281912Y-59417114D01*
X61285848Y-59380501D01*
X61287999Y-59360501D01*
X61287999Y-59360490D01*
X61288000Y-59360485D01*
X61287999Y-58519516D01*
X61281912Y-58462886D01*
X61281351Y-58461383D01*
X61262140Y-58409877D01*
X61234128Y-58334774D01*
X61234126Y-58334771D01*
X61234126Y-58334770D01*
X61152192Y-58225318D01*
X61152186Y-58225312D01*
X61137688Y-58214459D01*
X61095817Y-58158524D01*
X61088000Y-58115193D01*
X61088000Y-57161610D01*
X61088000Y-57161608D01*
X61053892Y-57034314D01*
X61050152Y-57027837D01*
X61028024Y-56989510D01*
X60988000Y-56920186D01*
X60894814Y-56827000D01*
X59844994Y-55777180D01*
X59811509Y-55715857D01*
X59816493Y-55646165D01*
X59858365Y-55590232D01*
X59923829Y-55565815D01*
X59932675Y-55565499D01*
X60357871Y-55565499D01*
X60357872Y-55565499D01*
X60417483Y-55559091D01*
X60552331Y-55508796D01*
X60667546Y-55422546D01*
X60753796Y-55307331D01*
X60770778Y-55261800D01*
X60812648Y-55205866D01*
X60878112Y-55181448D01*
X60946385Y-55196299D01*
X60995791Y-55245703D01*
X60997444Y-55248836D01*
X61019194Y-55291521D01*
X61120967Y-55431602D01*
X61243397Y-55554032D01*
X61383475Y-55655804D01*
X61537744Y-55734408D01*
X61702415Y-55787914D01*
X61702414Y-55787914D01*
X61709999Y-55789115D01*
X61710000Y-55789114D01*
X61710000Y-54720330D01*
X61729745Y-54740075D01*
X61815255Y-54789444D01*
X61910630Y-54815000D01*
X62009370Y-54815000D01*
X62104745Y-54789444D01*
X62190255Y-54740075D01*
X62210000Y-54720330D01*
X62210000Y-55789115D01*
G37*
%TD.AperFunction*%
%TA.AperFunction,Conductor*%
G36*
X77822946Y-50252294D02*
G01*
X77829209Y-50251119D01*
X77856070Y-50262021D01*
X77883873Y-50270185D01*
X77888043Y-50274998D01*
X77893949Y-50277395D01*
X77910653Y-50301091D01*
X77929628Y-50322989D01*
X77930534Y-50329293D01*
X77934206Y-50334502D01*
X77935447Y-50363459D01*
X77939572Y-50392147D01*
X77936925Y-50397942D01*
X77937198Y-50404308D01*
X77922587Y-50429338D01*
X77910547Y-50455703D01*
X77904381Y-50460527D01*
X77901976Y-50464649D01*
X77873129Y-50484985D01*
X77744594Y-50550476D01*
X77653741Y-50616485D01*
X77585354Y-50666172D01*
X77585352Y-50666174D01*
X77585351Y-50666174D01*
X77446174Y-50805351D01*
X77446174Y-50805352D01*
X77446172Y-50805354D01*
X77403484Y-50864109D01*
X77330476Y-50964594D01*
X77241117Y-51139970D01*
X77180290Y-51327173D01*
X77149500Y-51521577D01*
X77149500Y-51718422D01*
X77180290Y-51912826D01*
X77241117Y-52100029D01*
X77289907Y-52195784D01*
X77330476Y-52275405D01*
X77446172Y-52434646D01*
X77585354Y-52573828D01*
X77744595Y-52689524D01*
X77827455Y-52731743D01*
X77919970Y-52778882D01*
X77919972Y-52778882D01*
X77919975Y-52778884D01*
X78020317Y-52811487D01*
X78107173Y-52839709D01*
X78301578Y-52870500D01*
X78301583Y-52870500D01*
X78498422Y-52870500D01*
X78692826Y-52839709D01*
X78880025Y-52778884D01*
X79055405Y-52689524D01*
X79214646Y-52573828D01*
X79353828Y-52434646D01*
X79469524Y-52275405D01*
X79515015Y-52186122D01*
X79562989Y-52135327D01*
X79630810Y-52118532D01*
X79696945Y-52141069D01*
X79740397Y-52195784D01*
X79749500Y-52242418D01*
X79749500Y-79625500D01*
X79729815Y-79692539D01*
X79677011Y-79738294D01*
X79625500Y-79749500D01*
X78601613Y-79749500D01*
X78534574Y-79729815D01*
X78488819Y-79677011D01*
X78478875Y-79607853D01*
X78507900Y-79544297D01*
X78563292Y-79507569D01*
X78590025Y-79498884D01*
X78765405Y-79409524D01*
X78924646Y-79293828D01*
X79063828Y-79154646D01*
X79179524Y-78995405D01*
X79268884Y-78820025D01*
X79329709Y-78632826D01*
X79330713Y-78626490D01*
X79360500Y-78438422D01*
X79360500Y-78241577D01*
X79329709Y-78047173D01*
X79268882Y-77859970D01*
X79179523Y-77684594D01*
X79134607Y-77622773D01*
X79063828Y-77525354D01*
X78924646Y-77386172D01*
X78765405Y-77270476D01*
X78590029Y-77181117D01*
X78402826Y-77120290D01*
X78208422Y-77089500D01*
X78208417Y-77089500D01*
X78011583Y-77089500D01*
X78011578Y-77089500D01*
X77817173Y-77120290D01*
X77629970Y-77181117D01*
X77454594Y-77270476D01*
X77441486Y-77280000D01*
X77295354Y-77386172D01*
X77295352Y-77386174D01*
X77295351Y-77386174D01*
X77156174Y-77525351D01*
X77156174Y-77525352D01*
X77156172Y-77525354D01*
X77106485Y-77593741D01*
X77040476Y-77684594D01*
X76951117Y-77859970D01*
X76890290Y-78047173D01*
X76859500Y-78241577D01*
X76859500Y-78438422D01*
X76890290Y-78632826D01*
X76951117Y-78820029D01*
X77001735Y-78919371D01*
X77040476Y-78995405D01*
X77156172Y-79154646D01*
X77295354Y-79293828D01*
X77454595Y-79409524D01*
X77537455Y-79451743D01*
X77629970Y-79498882D01*
X77629972Y-79498882D01*
X77629975Y-79498884D01*
X77656707Y-79507569D01*
X77714381Y-79547007D01*
X77741579Y-79611366D01*
X77729664Y-79680212D01*
X77682420Y-79731688D01*
X77618387Y-79749500D01*
X52181613Y-79749500D01*
X52114574Y-79729815D01*
X52068819Y-79677011D01*
X52058875Y-79607853D01*
X52087900Y-79544297D01*
X52143292Y-79507569D01*
X52170025Y-79498884D01*
X52345405Y-79409524D01*
X52504646Y-79293828D01*
X52643828Y-79154646D01*
X52759524Y-78995405D01*
X52848884Y-78820025D01*
X52909709Y-78632826D01*
X52910713Y-78626490D01*
X52940500Y-78438422D01*
X52940500Y-78241577D01*
X52909709Y-78047173D01*
X52848882Y-77859970D01*
X52759523Y-77684594D01*
X52714607Y-77622773D01*
X52643828Y-77525354D01*
X52504646Y-77386172D01*
X52345405Y-77270476D01*
X52170029Y-77181117D01*
X51982826Y-77120290D01*
X51788422Y-77089500D01*
X51788417Y-77089500D01*
X51591583Y-77089500D01*
X51591578Y-77089500D01*
X51397173Y-77120290D01*
X51209970Y-77181117D01*
X51034594Y-77270476D01*
X51021486Y-77280000D01*
X50875354Y-77386172D01*
X50875352Y-77386174D01*
X50875351Y-77386174D01*
X50736174Y-77525351D01*
X50736174Y-77525352D01*
X50736172Y-77525354D01*
X50686485Y-77593741D01*
X50620476Y-77684594D01*
X50531117Y-77859970D01*
X50492431Y-77979034D01*
X50452993Y-78036709D01*
X50388634Y-78063907D01*
X50319788Y-78051992D01*
X50268312Y-78004747D01*
X50250500Y-77940715D01*
X50250500Y-67993525D01*
X51133500Y-67993525D01*
X51133500Y-73086475D01*
X51135858Y-73095276D01*
X51168063Y-73215468D01*
X51168074Y-73215504D01*
X51171015Y-73226484D01*
X51202795Y-73281529D01*
X51243490Y-73352015D01*
X51588553Y-73697078D01*
X51898181Y-74006705D01*
X51931666Y-74068028D01*
X51934500Y-74094386D01*
X51934500Y-74833102D01*
X51935258Y-74839411D01*
X51945122Y-74921561D01*
X51945122Y-74921563D01*
X51945123Y-74921564D01*
X51962722Y-74966192D01*
X52000639Y-75062343D01*
X52092077Y-75182922D01*
X52212656Y-75274360D01*
X52212657Y-75274360D01*
X52212658Y-75274361D01*
X52353436Y-75329877D01*
X52441898Y-75340500D01*
X52441903Y-75340500D01*
X53778097Y-75340500D01*
X53778102Y-75340500D01*
X53866564Y-75329877D01*
X54007342Y-75274361D01*
X54127922Y-75182922D01*
X54219361Y-75062342D01*
X54219362Y-75062338D01*
X54223519Y-75054948D01*
X54226412Y-75056574D01*
X54259617Y-75013881D01*
X54325520Y-74990674D01*
X54332086Y-74990500D01*
X57540613Y-74990500D01*
X57570053Y-74999144D01*
X57600040Y-75005668D01*
X57605055Y-75009422D01*
X57607652Y-75010185D01*
X57628294Y-75026819D01*
X57633181Y-75031706D01*
X57666666Y-75093029D01*
X57669500Y-75119387D01*
X57669500Y-75456144D01*
X57674825Y-75500494D01*
X57679640Y-75540588D01*
X57732636Y-75674976D01*
X57819921Y-75790078D01*
X57935023Y-75877363D01*
X57935024Y-75877363D01*
X57935025Y-75877364D01*
X58069410Y-75930359D01*
X58153856Y-75940500D01*
X58153862Y-75940500D01*
X58986138Y-75940500D01*
X58986144Y-75940500D01*
X59070590Y-75930359D01*
X59204975Y-75877364D01*
X59320078Y-75790078D01*
X59407364Y-75674975D01*
X59460359Y-75540590D01*
X59470500Y-75456144D01*
X59470500Y-74923856D01*
X59460359Y-74839410D01*
X59407364Y-74705025D01*
X59407363Y-74705024D01*
X59407363Y-74705023D01*
X59320078Y-74589921D01*
X59204976Y-74502636D01*
X59070588Y-74449640D01*
X59027242Y-74444435D01*
X58986144Y-74439500D01*
X58986138Y-74439500D01*
X58649387Y-74439500D01*
X58582348Y-74419815D01*
X58561706Y-74403181D01*
X58158016Y-73999491D01*
X58158015Y-73999490D01*
X58032485Y-73927016D01*
X58032480Y-73927014D01*
X57988780Y-73915304D01*
X57988780Y-73915305D01*
X57940627Y-73902402D01*
X57892475Y-73889500D01*
X57892474Y-73889500D01*
X54332086Y-73889500D01*
X54265047Y-73869815D01*
X54225361Y-73824015D01*
X54223519Y-73825052D01*
X54219361Y-73817658D01*
X54127922Y-73697077D01*
X54007343Y-73605639D01*
X53866561Y-73550122D01*
X53820926Y-73544642D01*
X53778102Y-73539500D01*
X53778097Y-73539500D01*
X53039386Y-73539500D01*
X53009945Y-73530855D01*
X52979959Y-73524332D01*
X52974943Y-73520577D01*
X52972347Y-73519815D01*
X52951705Y-73503181D01*
X52950705Y-73502181D01*
X52917220Y-73440858D01*
X52922204Y-73371166D01*
X52964076Y-73315233D01*
X53029540Y-73290816D01*
X53038386Y-73290500D01*
X53468768Y-73290500D01*
X53468769Y-73290499D01*
X53633082Y-73257816D01*
X53787863Y-73193703D01*
X53927162Y-73100626D01*
X53977603Y-73050185D01*
X54049934Y-72977855D01*
X54051716Y-72979637D01*
X54100342Y-72946506D01*
X54138465Y-72940500D01*
X58085890Y-72940500D01*
X58085892Y-72940500D01*
X58213186Y-72906392D01*
X58327314Y-72840500D01*
X58540995Y-72626817D01*
X58602318Y-72593333D01*
X58628676Y-72590499D01*
X58990481Y-72590499D01*
X58990484Y-72590499D01*
X59047114Y-72584412D01*
X59175226Y-72536628D01*
X59284687Y-72454687D01*
X59366628Y-72345226D01*
X59414412Y-72217114D01*
X59417506Y-72188333D01*
X59420499Y-72160501D01*
X59420499Y-72160494D01*
X59420500Y-72160485D01*
X59420499Y-71619516D01*
X59414412Y-71562886D01*
X59413583Y-71555172D01*
X59414869Y-71555033D01*
X59418185Y-71493241D01*
X59459054Y-71436571D01*
X59524074Y-71410993D01*
X59535120Y-71410500D01*
X60408023Y-71410500D01*
X60475062Y-71430185D01*
X60520817Y-71482989D01*
X60528266Y-71510134D01*
X60529124Y-71509932D01*
X60530907Y-71517479D01*
X60581202Y-71652328D01*
X60581206Y-71652335D01*
X60667452Y-71767544D01*
X60673725Y-71773817D01*
X60671326Y-71776215D01*
X60703374Y-71818995D01*
X60708382Y-71888685D01*
X60674918Y-71950020D01*
X60613606Y-71983525D01*
X60543913Y-71978564D01*
X60539756Y-71976930D01*
X60509744Y-71964499D01*
X60509738Y-71964497D01*
X60384071Y-71939500D01*
X60384069Y-71939500D01*
X60255931Y-71939500D01*
X60255929Y-71939500D01*
X60130261Y-71964497D01*
X60130255Y-71964499D01*
X60011875Y-72013533D01*
X60011866Y-72013538D01*
X59905331Y-72084723D01*
X59905327Y-72084726D01*
X59814726Y-72175327D01*
X59814723Y-72175331D01*
X59743538Y-72281866D01*
X59743533Y-72281875D01*
X59694499Y-72400255D01*
X59694497Y-72400261D01*
X59669500Y-72525928D01*
X59669500Y-72525931D01*
X59669500Y-72654069D01*
X59669500Y-72654071D01*
X59669499Y-72654071D01*
X59694497Y-72779738D01*
X59694499Y-72779744D01*
X59743533Y-72898124D01*
X59743538Y-72898133D01*
X59814723Y-73004668D01*
X59814726Y-73004672D01*
X59905327Y-73095273D01*
X59905331Y-73095276D01*
X60011866Y-73166461D01*
X60011870Y-73166463D01*
X60011873Y-73166465D01*
X60023605Y-73171324D01*
X60036659Y-73176732D01*
X60091062Y-73220573D01*
X60113127Y-73286868D01*
X60095848Y-73354567D01*
X60094201Y-73357263D01*
X60071885Y-73392779D01*
X59952467Y-73640753D01*
X59861565Y-73900534D01*
X59861561Y-73900546D01*
X59800317Y-74168875D01*
X59800315Y-74168891D01*
X59769500Y-74442378D01*
X59769500Y-74717621D01*
X59800315Y-74991108D01*
X59800317Y-74991124D01*
X59861561Y-75259453D01*
X59861565Y-75259465D01*
X59952467Y-75519246D01*
X60071884Y-75767218D01*
X60071886Y-75767221D01*
X60218319Y-76000268D01*
X60389925Y-76215455D01*
X60584545Y-76410075D01*
X60799732Y-76581681D01*
X61032779Y-76728114D01*
X61280757Y-76847534D01*
X61475865Y-76915805D01*
X61540534Y-76938434D01*
X61540546Y-76938438D01*
X61808879Y-76999683D01*
X62082378Y-77030499D01*
X62082379Y-77030500D01*
X62082383Y-77030500D01*
X62357621Y-77030500D01*
X62357621Y-77030499D01*
X62631121Y-76999683D01*
X62899454Y-76938438D01*
X63159243Y-76847534D01*
X63407221Y-76728114D01*
X63640268Y-76581681D01*
X63855455Y-76410075D01*
X64050075Y-76215455D01*
X64221681Y-76000268D01*
X64368114Y-75767221D01*
X64487534Y-75519243D01*
X64578438Y-75259454D01*
X64639683Y-74991121D01*
X64670500Y-74717617D01*
X64670500Y-74442383D01*
X64670499Y-74442378D01*
X64670094Y-74438777D01*
X64670094Y-74438776D01*
X64639684Y-74168891D01*
X64639683Y-74168879D01*
X64578438Y-73900546D01*
X64562325Y-73854499D01*
X64530096Y-73762392D01*
X64487534Y-73640757D01*
X64368114Y-73392779D01*
X64221681Y-73159732D01*
X64050075Y-72944545D01*
X63855455Y-72749925D01*
X63640268Y-72578319D01*
X63407221Y-72431886D01*
X63407222Y-72431886D01*
X63407215Y-72431882D01*
X63207550Y-72335729D01*
X63155690Y-72288907D01*
X63137377Y-72221480D01*
X63150000Y-72181523D01*
X63150000Y-72159999D01*
X63650000Y-72159999D01*
X63774972Y-72159999D01*
X63774986Y-72159998D01*
X63877697Y-72149505D01*
X64044119Y-72094358D01*
X64044124Y-72094356D01*
X64193345Y-72002315D01*
X64317315Y-71878345D01*
X64409356Y-71729124D01*
X64409358Y-71729119D01*
X64464505Y-71562697D01*
X64464506Y-71562690D01*
X64474999Y-71459986D01*
X64475000Y-71459973D01*
X64475000Y-71210000D01*
X63650000Y-71210000D01*
X63650000Y-72159999D01*
X63150000Y-72159999D01*
X63150000Y-71084000D01*
X63169685Y-71016961D01*
X63222489Y-70971206D01*
X63274000Y-70960000D01*
X63400000Y-70960000D01*
X63400000Y-70834000D01*
X63419685Y-70766961D01*
X63472489Y-70721206D01*
X63524000Y-70710000D01*
X64474999Y-70710000D01*
X64474999Y-70460028D01*
X64474998Y-70460013D01*
X64464505Y-70357302D01*
X64409358Y-70190880D01*
X64409356Y-70190875D01*
X64317315Y-70041654D01*
X64287026Y-70011365D01*
X64253541Y-69950042D01*
X64258525Y-69880350D01*
X64300397Y-69824417D01*
X64365861Y-69800000D01*
X64418038Y-69807501D01*
X64462517Y-69824091D01*
X64522127Y-69830500D01*
X65317872Y-69830499D01*
X65377483Y-69824091D01*
X65512331Y-69773796D01*
X65627546Y-69687546D01*
X65713796Y-69572331D01*
X65733682Y-69519014D01*
X65755258Y-69461167D01*
X65768527Y-69443440D01*
X65777727Y-69423297D01*
X65789057Y-69416015D01*
X65797129Y-69405233D01*
X65817877Y-69397494D01*
X65836505Y-69385523D01*
X65858421Y-69382371D01*
X65862593Y-69380816D01*
X65871440Y-69380500D01*
X66005859Y-69380500D01*
X66072898Y-69400185D01*
X66118653Y-69452989D01*
X66122030Y-69461140D01*
X66126204Y-69472331D01*
X66126205Y-69472332D01*
X66126206Y-69472335D01*
X66212452Y-69587544D01*
X66212455Y-69587547D01*
X66327664Y-69673793D01*
X66327671Y-69673797D01*
X66338825Y-69677957D01*
X66462517Y-69724091D01*
X66522127Y-69730500D01*
X67267872Y-69730499D01*
X67327483Y-69724091D01*
X67462331Y-69673796D01*
X67577546Y-69587546D01*
X67663796Y-69472331D01*
X67671180Y-69452532D01*
X67713050Y-69396598D01*
X67778514Y-69372179D01*
X67846787Y-69387029D01*
X67896194Y-69436433D01*
X67905069Y-69456859D01*
X67935641Y-69549119D01*
X67935643Y-69549124D01*
X68027684Y-69698345D01*
X68151656Y-69822317D01*
X68197772Y-69850761D01*
X68244497Y-69902708D01*
X68255720Y-69971671D01*
X68227877Y-70035753D01*
X68220361Y-70043978D01*
X68212683Y-70051656D01*
X68120643Y-70200875D01*
X68120641Y-70200880D01*
X68065494Y-70367302D01*
X68065493Y-70367309D01*
X68055000Y-70470013D01*
X68055000Y-70720000D01*
X68880000Y-70720000D01*
X68880000Y-70110000D01*
X68819000Y-70110000D01*
X68751961Y-70090315D01*
X68706206Y-70037511D01*
X68695000Y-69986000D01*
X68695000Y-67927663D01*
X68714685Y-67860624D01*
X68715898Y-67858772D01*
X68776461Y-67768133D01*
X68776461Y-67768132D01*
X68776465Y-67768127D01*
X68825501Y-67649744D01*
X68850500Y-67524069D01*
X68850500Y-67395931D01*
X68834375Y-67314868D01*
X68840602Y-67245278D01*
X68883464Y-67190100D01*
X68949353Y-67166855D01*
X69017350Y-67182922D01*
X69030303Y-67191410D01*
X69035500Y-67195301D01*
X69040168Y-67198795D01*
X69040171Y-67198797D01*
X69085118Y-67215561D01*
X69175017Y-67249091D01*
X69234627Y-67255500D01*
X70005372Y-67255499D01*
X70064983Y-67249091D01*
X70199831Y-67198796D01*
X70315046Y-67112546D01*
X70401296Y-66997331D01*
X70408680Y-66977532D01*
X70450550Y-66921598D01*
X70516014Y-66897179D01*
X70584287Y-66912029D01*
X70633694Y-66961433D01*
X70642569Y-66981859D01*
X70673141Y-67074119D01*
X70673143Y-67074124D01*
X70765184Y-67223345D01*
X70889154Y-67347315D01*
X71038375Y-67439356D01*
X71038380Y-67439358D01*
X71204802Y-67494505D01*
X71204809Y-67494506D01*
X71307519Y-67504999D01*
X71444999Y-67504999D01*
X71445000Y-67504998D01*
X71445000Y-65055000D01*
X71307527Y-65055000D01*
X71307512Y-65055001D01*
X71204802Y-65065494D01*
X71038380Y-65120641D01*
X71038375Y-65120643D01*
X70889154Y-65212684D01*
X70765184Y-65336654D01*
X70673143Y-65485875D01*
X70673142Y-65485878D01*
X70642569Y-65578141D01*
X70602796Y-65635585D01*
X70538280Y-65662408D01*
X70469504Y-65650093D01*
X70418304Y-65602549D01*
X70408681Y-65582468D01*
X70401298Y-65562673D01*
X70401293Y-65562664D01*
X70315047Y-65447455D01*
X70315044Y-65447452D01*
X70199834Y-65361205D01*
X70192051Y-65356956D01*
X70192855Y-65355483D01*
X70145225Y-65319820D01*
X70120815Y-65254353D01*
X70120500Y-65245520D01*
X70120500Y-64795981D01*
X70121009Y-64795981D01*
X70120914Y-64790162D01*
X70120500Y-64790162D01*
X70120500Y-64655928D01*
X70095502Y-64530261D01*
X70095501Y-64530260D01*
X70095501Y-64530256D01*
X70046465Y-64411873D01*
X70046464Y-64411872D01*
X70046461Y-64411866D01*
X69975276Y-64305331D01*
X69975273Y-64305327D01*
X69884672Y-64214726D01*
X69884668Y-64214723D01*
X69778133Y-64143538D01*
X69778123Y-64143533D01*
X69767324Y-64139060D01*
X69712921Y-64095219D01*
X69690856Y-64028924D01*
X69708135Y-63961225D01*
X69759273Y-63913615D01*
X69814775Y-63900499D01*
X70207872Y-63900499D01*
X70267483Y-63894091D01*
X70402331Y-63843796D01*
X70498580Y-63771743D01*
X70564041Y-63747327D01*
X70632314Y-63762178D01*
X70678427Y-63805914D01*
X70707680Y-63853340D01*
X70707683Y-63853344D01*
X70831654Y-63977315D01*
X70980875Y-64069356D01*
X70980880Y-64069358D01*
X71147302Y-64124505D01*
X71147309Y-64124506D01*
X71250019Y-64134999D01*
X71499999Y-64134999D01*
X72000000Y-64134999D01*
X72249972Y-64134999D01*
X72249986Y-64134998D01*
X72352697Y-64124505D01*
X72519119Y-64069358D01*
X72519124Y-64069356D01*
X72668345Y-63977315D01*
X72792315Y-63853345D01*
X72884356Y-63704124D01*
X72884358Y-63704119D01*
X72939505Y-63537697D01*
X72939506Y-63537690D01*
X72949999Y-63434986D01*
X72950000Y-63434973D01*
X72950000Y-63410001D01*
X74080204Y-63410001D01*
X74080399Y-63412486D01*
X74126218Y-63570198D01*
X74209814Y-63711552D01*
X74209821Y-63711561D01*
X74325938Y-63827678D01*
X74325947Y-63827685D01*
X74467303Y-63911282D01*
X74467306Y-63911283D01*
X74625004Y-63957099D01*
X74625010Y-63957100D01*
X74661850Y-63959999D01*
X74661866Y-63960000D01*
X75065000Y-63960000D01*
X75565000Y-63960000D01*
X75968134Y-63960000D01*
X75968149Y-63959999D01*
X76004989Y-63957100D01*
X76004995Y-63957099D01*
X76162693Y-63911283D01*
X76162696Y-63911282D01*
X76304052Y-63827685D01*
X76304061Y-63827678D01*
X76420178Y-63711561D01*
X76420185Y-63711552D01*
X76503781Y-63570198D01*
X76549600Y-63412486D01*
X76549795Y-63410001D01*
X76549795Y-63410000D01*
X75565000Y-63410000D01*
X75565000Y-63960000D01*
X75065000Y-63960000D01*
X75065000Y-63410000D01*
X74080205Y-63410000D01*
X74080204Y-63410001D01*
X72950000Y-63410001D01*
X72950000Y-63310000D01*
X72000000Y-63310000D01*
X72000000Y-64134999D01*
X71499999Y-64134999D01*
X71500000Y-64134998D01*
X71500000Y-63184000D01*
X71519685Y-63116961D01*
X71572489Y-63071206D01*
X71624000Y-63060000D01*
X71750000Y-63060000D01*
X71750000Y-62934000D01*
X71769685Y-62866961D01*
X71822489Y-62821206D01*
X71874000Y-62810000D01*
X72949999Y-62810000D01*
X72949999Y-62685028D01*
X72949998Y-62685018D01*
X72948679Y-62672104D01*
X72961448Y-62603411D01*
X73009327Y-62552526D01*
X73072037Y-62535500D01*
X74035561Y-62535500D01*
X74102600Y-62555185D01*
X74148355Y-62607989D01*
X74158299Y-62677147D01*
X74142293Y-62722621D01*
X74126218Y-62749801D01*
X74080399Y-62907513D01*
X74080204Y-62909998D01*
X74080205Y-62910000D01*
X76549795Y-62910000D01*
X76562587Y-62896161D01*
X76566855Y-62875848D01*
X76615909Y-62826093D01*
X76676107Y-62810500D01*
X77831770Y-62810500D01*
X77862199Y-62807646D01*
X77862201Y-62807646D01*
X77943045Y-62779357D01*
X78012823Y-62775794D01*
X78073451Y-62810523D01*
X78105679Y-62872516D01*
X78108000Y-62896398D01*
X78108000Y-66787040D01*
X78088315Y-66854079D01*
X78035511Y-66899834D01*
X77972432Y-66910499D01*
X77961770Y-66909500D01*
X77961766Y-66909500D01*
X76678234Y-66909500D01*
X76678230Y-66909500D01*
X76647800Y-66912353D01*
X76647798Y-66912354D01*
X76587647Y-66933402D01*
X76517868Y-66936964D01*
X76457241Y-66902236D01*
X76425013Y-66840242D01*
X76424219Y-66796962D01*
X76432024Y-66747681D01*
X76433000Y-66741519D01*
X76432999Y-66378482D01*
X76418146Y-66284696D01*
X76360550Y-66171658D01*
X76360546Y-66171654D01*
X76360545Y-66171652D01*
X76270847Y-66081954D01*
X76270844Y-66081952D01*
X76270842Y-66081950D01*
X76194017Y-66042805D01*
X76157801Y-66024352D01*
X76064024Y-66009500D01*
X76064019Y-66009500D01*
X75534537Y-66009500D01*
X75502445Y-66005275D01*
X75480893Y-65999500D01*
X75480892Y-65999500D01*
X73979432Y-65999500D01*
X73912393Y-65979815D01*
X73910541Y-65978602D01*
X73828133Y-65923538D01*
X73828124Y-65923533D01*
X73709744Y-65874499D01*
X73709738Y-65874497D01*
X73584071Y-65849500D01*
X73584069Y-65849500D01*
X73455931Y-65849500D01*
X73455929Y-65849500D01*
X73330261Y-65874497D01*
X73330255Y-65874499D01*
X73211875Y-65923533D01*
X73211866Y-65923538D01*
X73105331Y-65994723D01*
X73105327Y-65994726D01*
X73014724Y-66085329D01*
X73009600Y-66092999D01*
X72955986Y-66137803D01*
X72886661Y-66146509D01*
X72823634Y-66116353D01*
X72786917Y-66056909D01*
X72782499Y-66024106D01*
X72782499Y-65755028D01*
X72782498Y-65755012D01*
X72772005Y-65652302D01*
X72716858Y-65485880D01*
X72716856Y-65485875D01*
X72624815Y-65336654D01*
X72500845Y-65212684D01*
X72351624Y-65120643D01*
X72351619Y-65120641D01*
X72185197Y-65065494D01*
X72185190Y-65065493D01*
X72082486Y-65055000D01*
X71945000Y-65055000D01*
X71945000Y-67504999D01*
X72082472Y-67504999D01*
X72082486Y-67504998D01*
X72185197Y-67494505D01*
X72351619Y-67439358D01*
X72351624Y-67439356D01*
X72500845Y-67347315D01*
X72624815Y-67223345D01*
X72716856Y-67074124D01*
X72716858Y-67074119D01*
X72771104Y-66910416D01*
X72810876Y-66852971D01*
X72875392Y-66826148D01*
X72944168Y-66838463D01*
X72991912Y-66880529D01*
X73014723Y-66914668D01*
X73014726Y-66914672D01*
X73105327Y-67005273D01*
X73105331Y-67005276D01*
X73211866Y-67076461D01*
X73211872Y-67076464D01*
X73211873Y-67076465D01*
X73330256Y-67125501D01*
X73330260Y-67125501D01*
X73330261Y-67125502D01*
X73455928Y-67150500D01*
X73455931Y-67150500D01*
X73584071Y-67150500D01*
X73697246Y-67127987D01*
X73709744Y-67125501D01*
X73828127Y-67076465D01*
X73853046Y-67059815D01*
X73910541Y-67021398D01*
X73977218Y-67000520D01*
X73979432Y-67000500D01*
X74530245Y-67000500D01*
X74597284Y-67020185D01*
X74617926Y-67036819D01*
X74619152Y-67038045D01*
X74619154Y-67038046D01*
X74619158Y-67038050D01*
X74732196Y-67095646D01*
X74732198Y-67095647D01*
X74825975Y-67110499D01*
X74825981Y-67110500D01*
X76064018Y-67110499D01*
X76064022Y-67110499D01*
X76119163Y-67101765D01*
X76153875Y-67096268D01*
X76223168Y-67105223D01*
X76276620Y-67150219D01*
X76297259Y-67216970D01*
X76290314Y-67259693D01*
X76284854Y-67275296D01*
X76284853Y-67275300D01*
X76282000Y-67305730D01*
X76282000Y-67541051D01*
X76262315Y-67608090D01*
X76209511Y-67653845D01*
X76140353Y-67663789D01*
X76135720Y-67663033D01*
X76134991Y-67662899D01*
X76098149Y-67660000D01*
X75695000Y-67660000D01*
X75695000Y-69260000D01*
X76098134Y-69260000D01*
X76098149Y-69259999D01*
X76134989Y-69257100D01*
X76134995Y-69257099D01*
X76290905Y-69211803D01*
X76360774Y-69212002D01*
X76419444Y-69249944D01*
X76448288Y-69313582D01*
X76449500Y-69330879D01*
X76449500Y-71455661D01*
X76429815Y-71522700D01*
X76377011Y-71568455D01*
X76335543Y-71578784D01*
X76335576Y-71579059D01*
X76333385Y-71579322D01*
X76332916Y-71579439D01*
X76331908Y-71579499D01*
X76331900Y-71579500D01*
X76331898Y-71579500D01*
X76313411Y-71581720D01*
X76243438Y-71590122D01*
X76102656Y-71645639D01*
X75982077Y-71737077D01*
X75890638Y-71857658D01*
X75886481Y-71865052D01*
X75883587Y-71863425D01*
X75850383Y-71906119D01*
X75784480Y-71929326D01*
X75777914Y-71929500D01*
X71996515Y-71929500D01*
X71929476Y-71909815D01*
X71883721Y-71857011D01*
X71873777Y-71787853D01*
X71897248Y-71731189D01*
X71948796Y-71662331D01*
X71999091Y-71527483D01*
X72005500Y-71467873D01*
X72005499Y-70472128D01*
X71999091Y-70412517D01*
X71995361Y-70402517D01*
X71948797Y-70277671D01*
X71948793Y-70277664D01*
X71862547Y-70162455D01*
X71862544Y-70162452D01*
X71747335Y-70076206D01*
X71747328Y-70076202D01*
X71612482Y-70025908D01*
X71612483Y-70025908D01*
X71552883Y-70019501D01*
X71552881Y-70019500D01*
X71552873Y-70019500D01*
X71552865Y-70019500D01*
X71544500Y-70019500D01*
X71535814Y-70016949D01*
X71526853Y-70018238D01*
X71502812Y-70007259D01*
X71477461Y-69999815D01*
X71471533Y-69992974D01*
X71463297Y-69989213D01*
X71449007Y-69966978D01*
X71431706Y-69947011D01*
X71429418Y-69936496D01*
X71425523Y-69930435D01*
X71420500Y-69895500D01*
X71420500Y-69794141D01*
X71440185Y-69727102D01*
X71492989Y-69681347D01*
X71501149Y-69677966D01*
X71512331Y-69673796D01*
X71627546Y-69587546D01*
X71713796Y-69472331D01*
X71764091Y-69337483D01*
X71770500Y-69277873D01*
X71770499Y-68282135D01*
X72069500Y-68282135D01*
X72069500Y-69277870D01*
X72069501Y-69277876D01*
X72075908Y-69337483D01*
X72126202Y-69472328D01*
X72126206Y-69472335D01*
X72212452Y-69587544D01*
X72212455Y-69587547D01*
X72327664Y-69673793D01*
X72327671Y-69673797D01*
X72462517Y-69724091D01*
X72462516Y-69724091D01*
X72469444Y-69724835D01*
X72522127Y-69730500D01*
X73317872Y-69730499D01*
X73377483Y-69724091D01*
X73461829Y-69692631D01*
X73531519Y-69687648D01*
X73592842Y-69721133D01*
X73601015Y-69730150D01*
X73604726Y-69734672D01*
X73695327Y-69825273D01*
X73695331Y-69825276D01*
X73801866Y-69896461D01*
X73801872Y-69896464D01*
X73801873Y-69896465D01*
X73920256Y-69945501D01*
X73920260Y-69945501D01*
X73920261Y-69945502D01*
X74045928Y-69970500D01*
X74045931Y-69970500D01*
X74174071Y-69970500D01*
X74276915Y-69950042D01*
X74299744Y-69945501D01*
X74418127Y-69896465D01*
X74524669Y-69825276D01*
X74615276Y-69734669D01*
X74686465Y-69628127D01*
X74735501Y-69509744D01*
X74752697Y-69423297D01*
X74760500Y-69384071D01*
X74760500Y-69384000D01*
X74760510Y-69383963D01*
X74761097Y-69378009D01*
X74762226Y-69378120D01*
X74780185Y-69316961D01*
X74832989Y-69271206D01*
X74884500Y-69260000D01*
X75195000Y-69260000D01*
X75195000Y-68710000D01*
X74361831Y-68710000D01*
X74332867Y-68706570D01*
X74323389Y-68704293D01*
X74299744Y-68694499D01*
X74200141Y-68674686D01*
X74197755Y-68674113D01*
X74169481Y-68657873D01*
X74140616Y-68642774D01*
X74139038Y-68641224D01*
X73877316Y-68379502D01*
X73877314Y-68379500D01*
X73846537Y-68361730D01*
X73829148Y-68351691D01*
X73780932Y-68301125D01*
X73767857Y-68257555D01*
X73766561Y-68245500D01*
X73764091Y-68222517D01*
X73762315Y-68217756D01*
X73759421Y-68209998D01*
X74210204Y-68209998D01*
X74210205Y-68210000D01*
X75195000Y-68210000D01*
X75195000Y-67660000D01*
X74791850Y-67660000D01*
X74755010Y-67662899D01*
X74755004Y-67662900D01*
X74597306Y-67708716D01*
X74597303Y-67708717D01*
X74455947Y-67792314D01*
X74455938Y-67792321D01*
X74339821Y-67908438D01*
X74339814Y-67908447D01*
X74256218Y-68049801D01*
X74210399Y-68207513D01*
X74210204Y-68209998D01*
X73759421Y-68209998D01*
X73713797Y-68087671D01*
X73713793Y-68087664D01*
X73627547Y-67972455D01*
X73627544Y-67972452D01*
X73512335Y-67886206D01*
X73512328Y-67886202D01*
X73377482Y-67835908D01*
X73377483Y-67835908D01*
X73317883Y-67829501D01*
X73317881Y-67829500D01*
X73317873Y-67829500D01*
X73317864Y-67829500D01*
X72522129Y-67829500D01*
X72522123Y-67829501D01*
X72462516Y-67835908D01*
X72327671Y-67886202D01*
X72327664Y-67886206D01*
X72212455Y-67972452D01*
X72212452Y-67972455D01*
X72126206Y-68087664D01*
X72126202Y-68087671D01*
X72075908Y-68222517D01*
X72070465Y-68273147D01*
X72069501Y-68282123D01*
X72069500Y-68282135D01*
X71770499Y-68282135D01*
X71770499Y-68282128D01*
X71765379Y-68234500D01*
X71764091Y-68222516D01*
X71713797Y-68087671D01*
X71713793Y-68087664D01*
X71627547Y-67972455D01*
X71627544Y-67972452D01*
X71512335Y-67886206D01*
X71512328Y-67886202D01*
X71377482Y-67835908D01*
X71377483Y-67835908D01*
X71317883Y-67829501D01*
X71317881Y-67829500D01*
X71317873Y-67829500D01*
X71317864Y-67829500D01*
X70522129Y-67829500D01*
X70522123Y-67829501D01*
X70462516Y-67835908D01*
X70327671Y-67886202D01*
X70327664Y-67886206D01*
X70212455Y-67972452D01*
X70166498Y-68033842D01*
X70110563Y-68075713D01*
X70040872Y-68080696D01*
X69979549Y-68047210D01*
X69958335Y-68016909D01*
X69958149Y-68017025D01*
X69956170Y-68013816D01*
X69954845Y-68011924D01*
X69954356Y-68010877D01*
X69862315Y-67861654D01*
X69738345Y-67737684D01*
X69589124Y-67645643D01*
X69589119Y-67645641D01*
X69422697Y-67590494D01*
X69422690Y-67590493D01*
X69319986Y-67580000D01*
X69195000Y-67580000D01*
X69195000Y-69640000D01*
X69256000Y-69640000D01*
X69323039Y-69659685D01*
X69368794Y-69712489D01*
X69380000Y-69764000D01*
X69380000Y-70846000D01*
X69360315Y-70913039D01*
X69307511Y-70958794D01*
X69256000Y-70970000D01*
X69130000Y-70970000D01*
X69130000Y-71096000D01*
X69110315Y-71163039D01*
X69057511Y-71208794D01*
X69006000Y-71220000D01*
X68055001Y-71220000D01*
X68055001Y-71469986D01*
X68065493Y-71572695D01*
X68113311Y-71716995D01*
X68115713Y-71786824D01*
X68079982Y-71846866D01*
X68017461Y-71878059D01*
X67995605Y-71880000D01*
X67868366Y-71880000D01*
X67567033Y-71913952D01*
X67567017Y-71913954D01*
X67271366Y-71981434D01*
X67271354Y-71981438D01*
X66985133Y-72081592D01*
X66985119Y-72081598D01*
X66711903Y-72213172D01*
X66455127Y-72374515D01*
X66295425Y-72501871D01*
X67437263Y-73643709D01*
X67303398Y-73740967D01*
X67180967Y-73863398D01*
X67083709Y-73997263D01*
X65941871Y-72855425D01*
X65814515Y-73015127D01*
X65653172Y-73271903D01*
X65521598Y-73545119D01*
X65521592Y-73545133D01*
X65421438Y-73831354D01*
X65421434Y-73831366D01*
X65353954Y-74127017D01*
X65353952Y-74127033D01*
X65320000Y-74428366D01*
X65320000Y-74731633D01*
X65353952Y-75032966D01*
X65353954Y-75032982D01*
X65421434Y-75328633D01*
X65421438Y-75328645D01*
X65521592Y-75614866D01*
X65521598Y-75614880D01*
X65653172Y-75888096D01*
X65814515Y-76144872D01*
X65941871Y-76304573D01*
X67083708Y-75162736D01*
X67180967Y-75296602D01*
X67303398Y-75419033D01*
X67437262Y-75516290D01*
X66295425Y-76658127D01*
X66455127Y-76785484D01*
X66711903Y-76946827D01*
X66985119Y-77078401D01*
X66985133Y-77078407D01*
X67271354Y-77178561D01*
X67271366Y-77178565D01*
X67567017Y-77246045D01*
X67567033Y-77246047D01*
X67868366Y-77279999D01*
X67868368Y-77280000D01*
X68171632Y-77280000D01*
X68171633Y-77279999D01*
X68472966Y-77246047D01*
X68472982Y-77246045D01*
X68768633Y-77178565D01*
X68768645Y-77178561D01*
X69054866Y-77078407D01*
X69054880Y-77078401D01*
X69328096Y-76946827D01*
X69584872Y-76785484D01*
X69744573Y-76658126D01*
X68602737Y-75516290D01*
X68736602Y-75419033D01*
X68859033Y-75296602D01*
X68956290Y-75162737D01*
X70098126Y-76304573D01*
X70225484Y-76144872D01*
X70386827Y-75888096D01*
X70518401Y-75614880D01*
X70518407Y-75614866D01*
X70618561Y-75328645D01*
X70618565Y-75328633D01*
X70686045Y-75032982D01*
X70686047Y-75032966D01*
X70719999Y-74731633D01*
X70720000Y-74731631D01*
X70720000Y-74428368D01*
X70719999Y-74428366D01*
X70686047Y-74127033D01*
X70686045Y-74127017D01*
X70618565Y-73831366D01*
X70618561Y-73831354D01*
X70518407Y-73545133D01*
X70518401Y-73545119D01*
X70386827Y-73271903D01*
X70225484Y-73015127D01*
X70098127Y-72855425D01*
X68956290Y-73997262D01*
X68859033Y-73863398D01*
X68736602Y-73740967D01*
X68602736Y-73643709D01*
X69744573Y-72501871D01*
X69582154Y-72372347D01*
X69582774Y-72371569D01*
X69542103Y-72320032D01*
X69535344Y-72250490D01*
X69567255Y-72188333D01*
X69618139Y-72156045D01*
X69774119Y-72104358D01*
X69774124Y-72104356D01*
X69923345Y-72012315D01*
X70047315Y-71888345D01*
X70139356Y-71739124D01*
X70139359Y-71739117D01*
X70169930Y-71646860D01*
X70209702Y-71589415D01*
X70274218Y-71562591D01*
X70342994Y-71574906D01*
X70394194Y-71622448D01*
X70403818Y-71642529D01*
X70411203Y-71662329D01*
X70411206Y-71662335D01*
X70497452Y-71777544D01*
X70497455Y-71777547D01*
X70612664Y-71863793D01*
X70612671Y-71863797D01*
X70650910Y-71878059D01*
X70747517Y-71914091D01*
X70807127Y-71920500D01*
X70833910Y-71920499D01*
X70900947Y-71940181D01*
X70946704Y-71992984D01*
X70956649Y-72062142D01*
X70932715Y-72119424D01*
X70852636Y-72225023D01*
X70799640Y-72359411D01*
X70796161Y-72388388D01*
X70789500Y-72443856D01*
X70789500Y-72976144D01*
X70794825Y-73020494D01*
X70799640Y-73060588D01*
X70852636Y-73194976D01*
X70939921Y-73310078D01*
X71055023Y-73397363D01*
X71055024Y-73397363D01*
X71055025Y-73397364D01*
X71189410Y-73450359D01*
X71273856Y-73460500D01*
X71273862Y-73460500D01*
X72106138Y-73460500D01*
X72106144Y-73460500D01*
X72190590Y-73450359D01*
X72324975Y-73397364D01*
X72440078Y-73310078D01*
X72527364Y-73194975D01*
X72561264Y-73109008D01*
X72604170Y-73053866D01*
X72670078Y-73030673D01*
X72676619Y-73030500D01*
X75777914Y-73030500D01*
X75844953Y-73050185D01*
X75884638Y-73095984D01*
X75886481Y-73094948D01*
X75890638Y-73102341D01*
X75982077Y-73222922D01*
X76102656Y-73314360D01*
X76102657Y-73314360D01*
X76102658Y-73314361D01*
X76243436Y-73369877D01*
X76331898Y-73380500D01*
X76331903Y-73380500D01*
X77668097Y-73380500D01*
X77668102Y-73380500D01*
X77756564Y-73369877D01*
X77897342Y-73314361D01*
X77909074Y-73305464D01*
X77922021Y-73300542D01*
X77932489Y-73291473D01*
X77954035Y-73288374D01*
X77974383Y-73280641D01*
X77987935Y-73283500D01*
X78001647Y-73281529D01*
X78021448Y-73290571D01*
X78042747Y-73295066D01*
X78052602Y-73304799D01*
X78065203Y-73310554D01*
X78076971Y-73328866D01*
X78092459Y-73344162D01*
X78096267Y-73358891D01*
X78102977Y-73369332D01*
X78108000Y-73404267D01*
X78108000Y-73437823D01*
X78088315Y-73504862D01*
X78071681Y-73525504D01*
X77865531Y-73731653D01*
X77804208Y-73765138D01*
X77734516Y-73760154D01*
X77708959Y-73747074D01*
X77677869Y-73726300D01*
X77677859Y-73726295D01*
X77523082Y-73662184D01*
X77523074Y-73662182D01*
X77358771Y-73629500D01*
X77358767Y-73629500D01*
X76641233Y-73629500D01*
X76641228Y-73629500D01*
X76476925Y-73662182D01*
X76476917Y-73662184D01*
X76322139Y-73726295D01*
X76182837Y-73819373D01*
X76182834Y-73819376D01*
X76060066Y-73942145D01*
X76058283Y-73940362D01*
X76009658Y-73973494D01*
X75971535Y-73979500D01*
X73154108Y-73979500D01*
X73026812Y-74013608D01*
X72912686Y-74079500D01*
X72912683Y-74079502D01*
X71719003Y-75273181D01*
X71657680Y-75306666D01*
X71631322Y-75309500D01*
X71269519Y-75309500D01*
X71269509Y-75309501D01*
X71212885Y-75315587D01*
X71084773Y-75363372D01*
X70975313Y-75445313D01*
X70893373Y-75554771D01*
X70893372Y-75554774D01*
X70846665Y-75680000D01*
X70845587Y-75682889D01*
X70839500Y-75739498D01*
X70839500Y-76280481D01*
X70839501Y-76280490D01*
X70845587Y-76337114D01*
X70872801Y-76410075D01*
X70893372Y-76465226D01*
X70975313Y-76574687D01*
X71084774Y-76656628D01*
X71212886Y-76704412D01*
X71269515Y-76710500D01*
X72110484Y-76710499D01*
X72167114Y-76704412D01*
X72295226Y-76656628D01*
X72404687Y-76574687D01*
X72486628Y-76465226D01*
X72534412Y-76337114D01*
X72536687Y-76315944D01*
X72540499Y-76280501D01*
X72540499Y-76280490D01*
X72540500Y-76280485D01*
X72540499Y-75918674D01*
X72560183Y-75851636D01*
X72576813Y-75830999D01*
X73390995Y-75016819D01*
X73452318Y-74983334D01*
X73478676Y-74980500D01*
X75971535Y-74980500D01*
X76038574Y-75000185D01*
X76059290Y-75018630D01*
X76060066Y-75017855D01*
X76182837Y-75140626D01*
X76206632Y-75156525D01*
X76322137Y-75233703D01*
X76476918Y-75297816D01*
X76631847Y-75328633D01*
X76641228Y-75330499D01*
X76641232Y-75330500D01*
X76641233Y-75330500D01*
X77358768Y-75330500D01*
X77358769Y-75330499D01*
X77523082Y-75297816D01*
X77677863Y-75233703D01*
X77817162Y-75140626D01*
X77935626Y-75022162D01*
X77953360Y-74995619D01*
X78006969Y-74950815D01*
X78010682Y-74949517D01*
X78010676Y-74949503D01*
X78018180Y-74946393D01*
X78018186Y-74946392D01*
X78132314Y-74880500D01*
X78905604Y-74107207D01*
X78905609Y-74107204D01*
X78915812Y-74097000D01*
X78915814Y-74097000D01*
X79009000Y-74003814D01*
X79074892Y-73889686D01*
X79078877Y-73874813D01*
X79084321Y-73854499D01*
X79097955Y-73803612D01*
X79109000Y-73762393D01*
X79109000Y-73630608D01*
X79109000Y-59222608D01*
X79074892Y-59095314D01*
X79009000Y-58981186D01*
X78915814Y-58888000D01*
X78001299Y-57973485D01*
X77967814Y-57912162D01*
X77972798Y-57842470D01*
X77974393Y-57838416D01*
X77982816Y-57818082D01*
X78015500Y-57653767D01*
X78015500Y-57486233D01*
X77982816Y-57321918D01*
X77918703Y-57167137D01*
X77860139Y-57079490D01*
X77825626Y-57027837D01*
X77707162Y-56909373D01*
X77567860Y-56816295D01*
X77413082Y-56752184D01*
X77413074Y-56752182D01*
X77248771Y-56719500D01*
X77248767Y-56719500D01*
X76818387Y-56719500D01*
X76797141Y-56713261D01*
X76775053Y-56711682D01*
X76764269Y-56703609D01*
X76751348Y-56699815D01*
X76736848Y-56683081D01*
X76719120Y-56669810D01*
X76714412Y-56657189D01*
X76705593Y-56647011D01*
X76702441Y-56625093D01*
X76694703Y-56604346D01*
X76697565Y-56591185D01*
X76695649Y-56577853D01*
X76704848Y-56557709D01*
X76709555Y-56536073D01*
X76722823Y-56518347D01*
X76724674Y-56514297D01*
X76730706Y-56507819D01*
X76731706Y-56506819D01*
X76793029Y-56473334D01*
X76819387Y-56470500D01*
X77558097Y-56470500D01*
X77558102Y-56470500D01*
X77646564Y-56459877D01*
X77787342Y-56404361D01*
X77907922Y-56312922D01*
X77999361Y-56192342D01*
X78054877Y-56051564D01*
X78065500Y-55963102D01*
X78065500Y-55176898D01*
X78054877Y-55088436D01*
X77999361Y-54947658D01*
X77999360Y-54947657D01*
X77999360Y-54947656D01*
X77907922Y-54827077D01*
X77787343Y-54735639D01*
X77684588Y-54695118D01*
X77646564Y-54680123D01*
X77646563Y-54680122D01*
X77646561Y-54680122D01*
X77600926Y-54674642D01*
X77558102Y-54669500D01*
X76221898Y-54669500D01*
X76182853Y-54674188D01*
X76133438Y-54680122D01*
X75992656Y-54735639D01*
X75872077Y-54827077D01*
X75780639Y-54947656D01*
X75725122Y-55088438D01*
X75719261Y-55137251D01*
X75714500Y-55176898D01*
X75714500Y-55176903D01*
X75714500Y-55915612D01*
X75694815Y-55982651D01*
X75678181Y-56003293D01*
X73499930Y-58181543D01*
X73472064Y-58196758D01*
X73445040Y-58213448D01*
X73441613Y-58213386D01*
X73438607Y-58215028D01*
X73406933Y-58212762D01*
X73375181Y-58212192D01*
X73371354Y-58210218D01*
X73368915Y-58210044D01*
X73343346Y-58196956D01*
X73340260Y-58194893D01*
X73244975Y-58122636D01*
X73213687Y-58110297D01*
X73202637Y-58102912D01*
X73188412Y-58085887D01*
X73170906Y-58072266D01*
X73166448Y-58059599D01*
X73157838Y-58049294D01*
X73155075Y-58027281D01*
X73147713Y-58006358D01*
X73150811Y-57993293D01*
X73149139Y-57979968D01*
X73158715Y-57959957D01*
X73163834Y-57938374D01*
X73174549Y-57926873D01*
X73179302Y-57916944D01*
X73189899Y-57910399D01*
X73202648Y-57896716D01*
X73264669Y-57855276D01*
X73355276Y-57764669D01*
X73426465Y-57658127D01*
X73475501Y-57539744D01*
X73486145Y-57486233D01*
X73500500Y-57414071D01*
X73500500Y-57285928D01*
X73475502Y-57160261D01*
X73475501Y-57160260D01*
X73475501Y-57160256D01*
X73426465Y-57041873D01*
X73426464Y-57041872D01*
X73426461Y-57041866D01*
X73355276Y-56935331D01*
X73355273Y-56935327D01*
X73264672Y-56844726D01*
X73264668Y-56844723D01*
X73158133Y-56773538D01*
X73158124Y-56773533D01*
X73039744Y-56724499D01*
X73039738Y-56724497D01*
X72914071Y-56699500D01*
X72914069Y-56699500D01*
X72785931Y-56699500D01*
X72785929Y-56699500D01*
X72660261Y-56724497D01*
X72660255Y-56724499D01*
X72541875Y-56773533D01*
X72541866Y-56773538D01*
X72459459Y-56828602D01*
X72392782Y-56849480D01*
X72390568Y-56849500D01*
X71004108Y-56849500D01*
X70876812Y-56883608D01*
X70762686Y-56949500D01*
X70762683Y-56949502D01*
X69639003Y-58073181D01*
X69577680Y-58106666D01*
X69551322Y-58109500D01*
X69189519Y-58109500D01*
X69189509Y-58109501D01*
X69132885Y-58115587D01*
X69004773Y-58163372D01*
X68895313Y-58245313D01*
X68813373Y-58354771D01*
X68765587Y-58482889D01*
X68759500Y-58539498D01*
X68759500Y-59380481D01*
X68759501Y-59380490D01*
X68765587Y-59437114D01*
X68808310Y-59551654D01*
X68813372Y-59565226D01*
X68895313Y-59674687D01*
X69004774Y-59756628D01*
X69132886Y-59804412D01*
X69189515Y-59810500D01*
X69730484Y-59810499D01*
X69787114Y-59804412D01*
X69915226Y-59756628D01*
X70024687Y-59674687D01*
X70106628Y-59565226D01*
X70154412Y-59437114D01*
X70156687Y-59415944D01*
X70160499Y-59380501D01*
X70160499Y-59380490D01*
X70160500Y-59380485D01*
X70160499Y-59018674D01*
X70180183Y-58951636D01*
X70196813Y-58930999D01*
X71240995Y-57886819D01*
X71302318Y-57853334D01*
X71328676Y-57850500D01*
X72312662Y-57850500D01*
X72379701Y-57870185D01*
X72425456Y-57922989D01*
X72435400Y-57992147D01*
X72406375Y-58055703D01*
X72358152Y-58089854D01*
X72275027Y-58122634D01*
X72275026Y-58122634D01*
X72159921Y-58209921D01*
X72072636Y-58325023D01*
X72019640Y-58459411D01*
X72016821Y-58482889D01*
X72009500Y-58543856D01*
X72009500Y-59376144D01*
X72014420Y-59417110D01*
X72019640Y-59460588D01*
X72072636Y-59594976D01*
X72159921Y-59710078D01*
X72275023Y-59797363D01*
X72275024Y-59797363D01*
X72275025Y-59797364D01*
X72409410Y-59850359D01*
X72493856Y-59860500D01*
X72493862Y-59860500D01*
X73026138Y-59860500D01*
X73026144Y-59860500D01*
X73110590Y-59850359D01*
X73244975Y-59797364D01*
X73360078Y-59710078D01*
X73447364Y-59594975D01*
X73449716Y-59589011D01*
X73492622Y-59533867D01*
X73558529Y-59510673D01*
X73565071Y-59510500D01*
X73572474Y-59510500D01*
X74468635Y-59510500D01*
X74535674Y-59530185D01*
X74556316Y-59546819D01*
X75507316Y-60497819D01*
X75540801Y-60559142D01*
X75535817Y-60628834D01*
X75493945Y-60684767D01*
X75428481Y-60709184D01*
X75419635Y-60709500D01*
X74695982Y-60709500D01*
X74615019Y-60722323D01*
X74602196Y-60724354D01*
X74489158Y-60781950D01*
X74489157Y-60781951D01*
X74489152Y-60781954D01*
X74399454Y-60871652D01*
X74399451Y-60871657D01*
X74341852Y-60984698D01*
X74327000Y-61078475D01*
X74327000Y-61078480D01*
X74327000Y-61078481D01*
X74327000Y-61254389D01*
X74327001Y-61410500D01*
X74307317Y-61477539D01*
X74254513Y-61523294D01*
X74203001Y-61534500D01*
X72822244Y-61534500D01*
X72755205Y-61514815D01*
X72709450Y-61462011D01*
X72698954Y-61397248D01*
X72700500Y-61382873D01*
X72700499Y-60637128D01*
X72694091Y-60577517D01*
X72692507Y-60573271D01*
X72643797Y-60442671D01*
X72643793Y-60442664D01*
X72557547Y-60327455D01*
X72557544Y-60327452D01*
X72442335Y-60241206D01*
X72442328Y-60241202D01*
X72307482Y-60190908D01*
X72307483Y-60190908D01*
X72247883Y-60184501D01*
X72247881Y-60184500D01*
X72247873Y-60184500D01*
X72247864Y-60184500D01*
X71252129Y-60184500D01*
X71252123Y-60184501D01*
X71192516Y-60190908D01*
X71057671Y-60241202D01*
X71057664Y-60241206D01*
X70942455Y-60327452D01*
X70942452Y-60327455D01*
X70856206Y-60442664D01*
X70856202Y-60442671D01*
X70846445Y-60468833D01*
X70833175Y-60486559D01*
X70823976Y-60506703D01*
X70812645Y-60513984D01*
X70804574Y-60524767D01*
X70783826Y-60532505D01*
X70765198Y-60544477D01*
X70743279Y-60547628D01*
X70739109Y-60549184D01*
X70730263Y-60549500D01*
X70724141Y-60549500D01*
X70657102Y-60529815D01*
X70611347Y-60477011D01*
X70607969Y-60468859D01*
X70603796Y-60457669D01*
X70603793Y-60457665D01*
X70603793Y-60457664D01*
X70517547Y-60342455D01*
X70517544Y-60342452D01*
X70402335Y-60256206D01*
X70402328Y-60256202D01*
X70267482Y-60205908D01*
X70267483Y-60205908D01*
X70207883Y-60199501D01*
X70207881Y-60199500D01*
X70207873Y-60199500D01*
X70207864Y-60199500D01*
X69212129Y-60199500D01*
X69212123Y-60199501D01*
X69152516Y-60205908D01*
X69017671Y-60256202D01*
X69017664Y-60256206D01*
X68902455Y-60342452D01*
X68902452Y-60342455D01*
X68816206Y-60457664D01*
X68816202Y-60457671D01*
X68765908Y-60592517D01*
X68759501Y-60652116D01*
X68759500Y-60652135D01*
X68759500Y-61092324D01*
X68739815Y-61159363D01*
X68687011Y-61205118D01*
X68617853Y-61215062D01*
X68554297Y-61186037D01*
X68547819Y-61180005D01*
X67907819Y-60540005D01*
X67874334Y-60478682D01*
X67871500Y-60452324D01*
X67871500Y-55785110D01*
X67871500Y-55785108D01*
X67854481Y-55721591D01*
X67856144Y-55651743D01*
X67895307Y-55593881D01*
X67959535Y-55566377D01*
X67974256Y-55565500D01*
X68043768Y-55565500D01*
X68043769Y-55565499D01*
X68208082Y-55532816D01*
X68362863Y-55468703D01*
X68502162Y-55375626D01*
X68620626Y-55257162D01*
X68713703Y-55117863D01*
X68777816Y-54963082D01*
X68810500Y-54798767D01*
X68810500Y-54081233D01*
X68810499Y-54081228D01*
X69109500Y-54081228D01*
X69109500Y-54798771D01*
X69142182Y-54963074D01*
X69142184Y-54963082D01*
X69206295Y-55117860D01*
X69299373Y-55257162D01*
X69417837Y-55375626D01*
X69488055Y-55422544D01*
X69557137Y-55468703D01*
X69711918Y-55532816D01*
X69876223Y-55565498D01*
X69876228Y-55565499D01*
X69876232Y-55565500D01*
X69876233Y-55565500D01*
X70043768Y-55565500D01*
X70043769Y-55565499D01*
X70208082Y-55532816D01*
X70362863Y-55468703D01*
X70502162Y-55375626D01*
X70620626Y-55257162D01*
X70713703Y-55117863D01*
X70777816Y-54963082D01*
X70810500Y-54798767D01*
X70810500Y-54081233D01*
X70777816Y-53916918D01*
X70715773Y-53767135D01*
X70713704Y-53762139D01*
X70700747Y-53742748D01*
X70656291Y-53676214D01*
X70620626Y-53622837D01*
X70502162Y-53504373D01*
X70362860Y-53411295D01*
X70208082Y-53347184D01*
X70208074Y-53347182D01*
X70043771Y-53314500D01*
X70043767Y-53314500D01*
X69876233Y-53314500D01*
X69876228Y-53314500D01*
X69711925Y-53347182D01*
X69711917Y-53347184D01*
X69557139Y-53411295D01*
X69417837Y-53504373D01*
X69299373Y-53622837D01*
X69206295Y-53762139D01*
X69142184Y-53916917D01*
X69142182Y-53916925D01*
X69109500Y-54081228D01*
X68810499Y-54081228D01*
X68777816Y-53916918D01*
X68715773Y-53767135D01*
X68713704Y-53762139D01*
X68700747Y-53742748D01*
X68656291Y-53676214D01*
X68620626Y-53622837D01*
X68502162Y-53504373D01*
X68362860Y-53411295D01*
X68208082Y-53347184D01*
X68208074Y-53347182D01*
X68043771Y-53314500D01*
X68043767Y-53314500D01*
X67876233Y-53314500D01*
X67876228Y-53314500D01*
X67711925Y-53347182D01*
X67711917Y-53347184D01*
X67557139Y-53411295D01*
X67417837Y-53504373D01*
X67299373Y-53622837D01*
X67206295Y-53762139D01*
X67142184Y-53916917D01*
X67142182Y-53916925D01*
X67109500Y-54081228D01*
X67109500Y-54582324D01*
X67103261Y-54603569D01*
X67101682Y-54625658D01*
X67093609Y-54636441D01*
X67089815Y-54649363D01*
X67073081Y-54663862D01*
X67059810Y-54681591D01*
X67047189Y-54686298D01*
X67037011Y-54695118D01*
X67015093Y-54698269D01*
X66994346Y-54706008D01*
X66981185Y-54703145D01*
X66967853Y-54705062D01*
X66947709Y-54695862D01*
X66926073Y-54691156D01*
X66908347Y-54677887D01*
X66904297Y-54676037D01*
X66897819Y-54670005D01*
X66846819Y-54619005D01*
X66813334Y-54557682D01*
X66810500Y-54531324D01*
X66810500Y-54081232D01*
X66810499Y-54081228D01*
X66777817Y-53916925D01*
X66777816Y-53916918D01*
X66715773Y-53767135D01*
X66713704Y-53762139D01*
X66700747Y-53742748D01*
X66656291Y-53676214D01*
X66620626Y-53622837D01*
X66502162Y-53504373D01*
X66362860Y-53411295D01*
X66208082Y-53347184D01*
X66208074Y-53347182D01*
X66043771Y-53314500D01*
X66043767Y-53314500D01*
X65876233Y-53314500D01*
X65876228Y-53314500D01*
X65711925Y-53347182D01*
X65711917Y-53347184D01*
X65557139Y-53411295D01*
X65417837Y-53504373D01*
X65299373Y-53622837D01*
X65206295Y-53762139D01*
X65142184Y-53916917D01*
X65142182Y-53916925D01*
X65109500Y-54081228D01*
X65109500Y-54798771D01*
X65142182Y-54963074D01*
X65142184Y-54963082D01*
X65206295Y-55117860D01*
X65299373Y-55257162D01*
X65417837Y-55375626D01*
X65488055Y-55422544D01*
X65557137Y-55468703D01*
X65711918Y-55532816D01*
X65876223Y-55565498D01*
X65876228Y-55565499D01*
X65876232Y-55565500D01*
X65876233Y-55565500D01*
X66043768Y-55565500D01*
X66043769Y-55565499D01*
X66208082Y-55532816D01*
X66228349Y-55524420D01*
X66297814Y-55516949D01*
X66360295Y-55548221D01*
X66363485Y-55551299D01*
X66834181Y-56021995D01*
X66867666Y-56083318D01*
X66870500Y-56109676D01*
X66870500Y-58866930D01*
X66850815Y-58933969D01*
X66798011Y-58979724D01*
X66728853Y-58989668D01*
X66707496Y-58984636D01*
X66697085Y-58981186D01*
X66572797Y-58940001D01*
X66572795Y-58940000D01*
X66470016Y-58929500D01*
X66470009Y-58929500D01*
X65729344Y-58929500D01*
X65662305Y-58909815D01*
X65616550Y-58857011D01*
X65606606Y-58787853D01*
X65614783Y-58758048D01*
X65655499Y-58659748D01*
X65655501Y-58659744D01*
X65667396Y-58599946D01*
X65680500Y-58534071D01*
X65680500Y-58405928D01*
X65655502Y-58280261D01*
X65655501Y-58280260D01*
X65655501Y-58280256D01*
X65606465Y-58161873D01*
X65606464Y-58161872D01*
X65606461Y-58161866D01*
X65535276Y-58055331D01*
X65535273Y-58055327D01*
X65444672Y-57964726D01*
X65444668Y-57964723D01*
X65338133Y-57893538D01*
X65338124Y-57893533D01*
X65219744Y-57844499D01*
X65219738Y-57844497D01*
X65094071Y-57819500D01*
X65094069Y-57819500D01*
X64965931Y-57819500D01*
X64965929Y-57819500D01*
X64840261Y-57844497D01*
X64840255Y-57844499D01*
X64721875Y-57893533D01*
X64721868Y-57893537D01*
X64653390Y-57939293D01*
X64586713Y-57960170D01*
X64519333Y-57941685D01*
X64472643Y-57889706D01*
X64460500Y-57836190D01*
X64460500Y-55468464D01*
X64480185Y-55401425D01*
X64498630Y-55380709D01*
X64497854Y-55379933D01*
X64502158Y-55375628D01*
X64502162Y-55375626D01*
X64620626Y-55257162D01*
X64713703Y-55117863D01*
X64777816Y-54963082D01*
X64810500Y-54798767D01*
X64810500Y-54081233D01*
X64777816Y-53916918D01*
X64715773Y-53767135D01*
X64713704Y-53762139D01*
X64700747Y-53742748D01*
X64656291Y-53676214D01*
X64620626Y-53622837D01*
X64502162Y-53504373D01*
X64362860Y-53411295D01*
X64208082Y-53347184D01*
X64208074Y-53347182D01*
X64043771Y-53314500D01*
X64043767Y-53314500D01*
X63876233Y-53314500D01*
X63876228Y-53314500D01*
X63711925Y-53347182D01*
X63711917Y-53347184D01*
X63557139Y-53411295D01*
X63417837Y-53504373D01*
X63299373Y-53622837D01*
X63202913Y-53767202D01*
X63201904Y-53766528D01*
X63157417Y-53811804D01*
X63089277Y-53827254D01*
X63023601Y-53803412D01*
X62981241Y-53747848D01*
X62979588Y-53743177D01*
X62979411Y-53742748D01*
X62900804Y-53588475D01*
X62799032Y-53448397D01*
X62676602Y-53325967D01*
X62536524Y-53224195D01*
X62382257Y-53145591D01*
X62217589Y-53092087D01*
X62217581Y-53092085D01*
X62210000Y-53090884D01*
X62210000Y-54159670D01*
X62190255Y-54139925D01*
X62104745Y-54090556D01*
X62009370Y-54065000D01*
X61910630Y-54065000D01*
X61815255Y-54090556D01*
X61729745Y-54139925D01*
X61710000Y-54159670D01*
X61710000Y-53090884D01*
X61709999Y-53090884D01*
X61702418Y-53092085D01*
X61702410Y-53092087D01*
X61537742Y-53145591D01*
X61383475Y-53224195D01*
X61243397Y-53325967D01*
X61120967Y-53448397D01*
X61019195Y-53588475D01*
X60997444Y-53631164D01*
X60949469Y-53681959D01*
X60881647Y-53698753D01*
X60815513Y-53676214D01*
X60772062Y-53621499D01*
X60770778Y-53618199D01*
X60753798Y-53572673D01*
X60753793Y-53572664D01*
X60667547Y-53457455D01*
X60667544Y-53457452D01*
X60552335Y-53371206D01*
X60552328Y-53371202D01*
X60417482Y-53320908D01*
X60417483Y-53320908D01*
X60357883Y-53314501D01*
X60357881Y-53314500D01*
X60357873Y-53314500D01*
X60357864Y-53314500D01*
X59562129Y-53314500D01*
X59562123Y-53314501D01*
X59502516Y-53320908D01*
X59367671Y-53371202D01*
X59367664Y-53371206D01*
X59252455Y-53457452D01*
X59252452Y-53457455D01*
X59166206Y-53572664D01*
X59166202Y-53572671D01*
X59115908Y-53707517D01*
X59109501Y-53767116D01*
X59109500Y-53767135D01*
X59109500Y-54531323D01*
X59089815Y-54598362D01*
X59073181Y-54619004D01*
X58709005Y-54983181D01*
X58647682Y-55016666D01*
X58621324Y-55019500D01*
X54178465Y-55019500D01*
X54111426Y-54999815D01*
X54090709Y-54981369D01*
X54089934Y-54982145D01*
X53967162Y-54859373D01*
X53827860Y-54766295D01*
X53673082Y-54702184D01*
X53673074Y-54702182D01*
X53508771Y-54669500D01*
X53508767Y-54669500D01*
X52791233Y-54669500D01*
X52791228Y-54669500D01*
X52626925Y-54702182D01*
X52626917Y-54702184D01*
X52472139Y-54766295D01*
X52332837Y-54859373D01*
X52214373Y-54977837D01*
X52121295Y-55117139D01*
X52057184Y-55271917D01*
X52057182Y-55271925D01*
X52024500Y-55436228D01*
X52024500Y-55603771D01*
X52057182Y-55768074D01*
X52057184Y-55768082D01*
X52121295Y-55922860D01*
X52214373Y-56062162D01*
X52332837Y-56180626D01*
X52425494Y-56242537D01*
X52472137Y-56273703D01*
X52626918Y-56337816D01*
X52791228Y-56370499D01*
X52791232Y-56370500D01*
X52791233Y-56370500D01*
X53508768Y-56370500D01*
X53508769Y-56370499D01*
X53673082Y-56337816D01*
X53827863Y-56273703D01*
X53967162Y-56180626D01*
X53967165Y-56180623D01*
X54089934Y-56057855D01*
X54091716Y-56059637D01*
X54140342Y-56026506D01*
X54178465Y-56020500D01*
X58621324Y-56020500D01*
X58688363Y-56040185D01*
X58709005Y-56056819D01*
X60050681Y-57398495D01*
X60084166Y-57459818D01*
X60087000Y-57486176D01*
X60087000Y-58115193D01*
X60067315Y-58182232D01*
X60037312Y-58214459D01*
X60022813Y-58225312D01*
X60022807Y-58225318D01*
X59940874Y-58334769D01*
X59940872Y-58334773D01*
X59940872Y-58334774D01*
X59894384Y-58459411D01*
X59893087Y-58462889D01*
X59887000Y-58519498D01*
X59887000Y-59360481D01*
X59887001Y-59360490D01*
X59893087Y-59417114D01*
X59927984Y-59510673D01*
X59940872Y-59545226D01*
X60022813Y-59654687D01*
X60132274Y-59736628D01*
X60260386Y-59784412D01*
X60317015Y-59790500D01*
X60857984Y-59790499D01*
X60914614Y-59784412D01*
X61042726Y-59736628D01*
X61042734Y-59736621D01*
X61049154Y-59733117D01*
X61066575Y-59729327D01*
X61082222Y-59720783D01*
X61100005Y-59722054D01*
X61117427Y-59718265D01*
X61134131Y-59724495D01*
X61151914Y-59725767D01*
X61166185Y-59736450D01*
X61182892Y-59742681D01*
X61193576Y-59756953D01*
X61207848Y-59767637D01*
X61214079Y-59784343D01*
X61224763Y-59798615D01*
X61226034Y-59816395D01*
X61232266Y-59833101D01*
X61228476Y-59850524D01*
X61229748Y-59868306D01*
X61221204Y-59883952D01*
X61217415Y-59901375D01*
X61196264Y-59929629D01*
X61153687Y-59972207D01*
X61153686Y-59972208D01*
X61060502Y-60065391D01*
X61060500Y-60065394D01*
X61026244Y-60124727D01*
X60975676Y-60172942D01*
X60907069Y-60186164D01*
X60875525Y-60178908D01*
X60871098Y-60177257D01*
X60867481Y-60175908D01*
X60807883Y-60169501D01*
X60807881Y-60169500D01*
X60807873Y-60169500D01*
X60807864Y-60169500D01*
X59812129Y-60169500D01*
X59812123Y-60169501D01*
X59752516Y-60175908D01*
X59617671Y-60226202D01*
X59617664Y-60226206D01*
X59502456Y-60312452D01*
X59502455Y-60312453D01*
X59502454Y-60312454D01*
X59416204Y-60427669D01*
X59416203Y-60427670D01*
X59414601Y-60429811D01*
X59410944Y-60432548D01*
X59409047Y-60436703D01*
X59383232Y-60453293D01*
X59358667Y-60471682D01*
X59353037Y-60472697D01*
X59350269Y-60474477D01*
X59315334Y-60479500D01*
X59153861Y-60479500D01*
X59086822Y-60459815D01*
X59049362Y-60419581D01*
X59049112Y-60419769D01*
X59047364Y-60417434D01*
X59045027Y-60414924D01*
X59043797Y-60412673D01*
X59043796Y-60412669D01*
X59043793Y-60412665D01*
X59043792Y-60412663D01*
X58957547Y-60297455D01*
X58957544Y-60297452D01*
X58842335Y-60211206D01*
X58842328Y-60211202D01*
X58707482Y-60160908D01*
X58707483Y-60160908D01*
X58647883Y-60154501D01*
X58647881Y-60154500D01*
X58647873Y-60154500D01*
X58647864Y-60154500D01*
X57652129Y-60154500D01*
X57652123Y-60154501D01*
X57592516Y-60160908D01*
X57457671Y-60211202D01*
X57457664Y-60211206D01*
X57342455Y-60297452D01*
X57342452Y-60297455D01*
X57256206Y-60412664D01*
X57256202Y-60412671D01*
X57205910Y-60547513D01*
X57205909Y-60547517D01*
X57199500Y-60607127D01*
X57199500Y-60607134D01*
X57199500Y-60607135D01*
X57199500Y-61352870D01*
X57199501Y-61352876D01*
X57205908Y-61412483D01*
X57256202Y-61547328D01*
X57256206Y-61547335D01*
X57342452Y-61662544D01*
X57342455Y-61662547D01*
X57457664Y-61748793D01*
X57457673Y-61748798D01*
X57477468Y-61756181D01*
X57533402Y-61798051D01*
X57557820Y-61863515D01*
X57542969Y-61931788D01*
X57493565Y-61981194D01*
X57473141Y-61990069D01*
X57380878Y-62020642D01*
X57380875Y-62020643D01*
X57231654Y-62112684D01*
X57107684Y-62236654D01*
X57015643Y-62385875D01*
X57015641Y-62385880D01*
X56960494Y-62552302D01*
X56960493Y-62552309D01*
X56950000Y-62655013D01*
X56950000Y-62780000D01*
X58026000Y-62780000D01*
X58093039Y-62799685D01*
X58138794Y-62852489D01*
X58150000Y-62904000D01*
X58150000Y-63156000D01*
X58130315Y-63223039D01*
X58077511Y-63268794D01*
X58026000Y-63280000D01*
X56950001Y-63280000D01*
X56950001Y-63404984D01*
X56951423Y-63418897D01*
X56938654Y-63487590D01*
X56890773Y-63538475D01*
X56828065Y-63555500D01*
X55429676Y-63555500D01*
X55400235Y-63546855D01*
X55370249Y-63540332D01*
X55365233Y-63536577D01*
X55362637Y-63535815D01*
X55341995Y-63519181D01*
X55214184Y-63391370D01*
X55180699Y-63330047D01*
X55179392Y-63284296D01*
X55183000Y-63261519D01*
X55182999Y-62898482D01*
X55168146Y-62804696D01*
X55110550Y-62691658D01*
X55110546Y-62691654D01*
X55110545Y-62691652D01*
X55020847Y-62601954D01*
X55020844Y-62601952D01*
X55020842Y-62601950D01*
X54929061Y-62555185D01*
X54907801Y-62544352D01*
X54814024Y-62529500D01*
X53575981Y-62529500D01*
X53486123Y-62543732D01*
X53416830Y-62534776D01*
X53363379Y-62489779D01*
X53342740Y-62423027D01*
X53349687Y-62380300D01*
X53355146Y-62364699D01*
X53358000Y-62334269D01*
X53358000Y-62098948D01*
X53377685Y-62031909D01*
X53430489Y-61986154D01*
X53499647Y-61976210D01*
X53504297Y-61976969D01*
X53505018Y-61977100D01*
X53541850Y-61979999D01*
X53541866Y-61980000D01*
X53945000Y-61980000D01*
X54445000Y-61980000D01*
X54848134Y-61980000D01*
X54848149Y-61979999D01*
X54884989Y-61977100D01*
X54884995Y-61977099D01*
X55042693Y-61931283D01*
X55042696Y-61931282D01*
X55184052Y-61847685D01*
X55184061Y-61847678D01*
X55300178Y-61731561D01*
X55300185Y-61731552D01*
X55383781Y-61590198D01*
X55429600Y-61432486D01*
X55429795Y-61430001D01*
X55429795Y-61430000D01*
X54445000Y-61430000D01*
X54445000Y-61980000D01*
X53945000Y-61980000D01*
X53945000Y-60930000D01*
X54445000Y-60930000D01*
X55429795Y-60930000D01*
X55429795Y-60929998D01*
X55429600Y-60927513D01*
X55383781Y-60769801D01*
X55300185Y-60628447D01*
X55300178Y-60628438D01*
X55184061Y-60512321D01*
X55184052Y-60512314D01*
X55042696Y-60428717D01*
X55042693Y-60428716D01*
X54884995Y-60382900D01*
X54884989Y-60382899D01*
X54848149Y-60380000D01*
X54445000Y-60380000D01*
X54445000Y-60930000D01*
X53945000Y-60930000D01*
X53945000Y-60380000D01*
X53541850Y-60380000D01*
X53505010Y-60382899D01*
X53505004Y-60382900D01*
X53347306Y-60428716D01*
X53347303Y-60428717D01*
X53205947Y-60512314D01*
X53205938Y-60512321D01*
X53084300Y-60633960D01*
X53082535Y-60632195D01*
X53035820Y-60665923D01*
X52966052Y-60669703D01*
X52905317Y-60635163D01*
X52872896Y-60573271D01*
X52870500Y-60549010D01*
X52870500Y-58629387D01*
X52879144Y-58599946D01*
X52885668Y-58569960D01*
X52889422Y-58564944D01*
X52890185Y-58562348D01*
X52906819Y-58541706D01*
X52991706Y-58456819D01*
X53053029Y-58423334D01*
X53079387Y-58420500D01*
X53818097Y-58420500D01*
X53818102Y-58420500D01*
X53906564Y-58409877D01*
X54047342Y-58354361D01*
X54167922Y-58262922D01*
X54259361Y-58142342D01*
X54259362Y-58142338D01*
X54263519Y-58134948D01*
X54266412Y-58136574D01*
X54299617Y-58093881D01*
X54365520Y-58070674D01*
X54372086Y-58070500D01*
X55688113Y-58070500D01*
X55755152Y-58090185D01*
X55775794Y-58106819D01*
X56500681Y-58831706D01*
X56534166Y-58893029D01*
X56537000Y-58919387D01*
X56537000Y-59356144D01*
X56539401Y-59376137D01*
X56547140Y-59440588D01*
X56600136Y-59574976D01*
X56687421Y-59690078D01*
X56802523Y-59777363D01*
X56802524Y-59777363D01*
X56802525Y-59777364D01*
X56936910Y-59830359D01*
X57021356Y-59840500D01*
X57021362Y-59840500D01*
X57553638Y-59840500D01*
X57553644Y-59840500D01*
X57638090Y-59830359D01*
X57772475Y-59777364D01*
X57887578Y-59690078D01*
X57974864Y-59574975D01*
X58027859Y-59440590D01*
X58038000Y-59356144D01*
X58038000Y-58523856D01*
X58027859Y-58439410D01*
X57974864Y-58305025D01*
X57974863Y-58305024D01*
X57974863Y-58305023D01*
X57887578Y-58189921D01*
X57772476Y-58102636D01*
X57638088Y-58049640D01*
X57594742Y-58044435D01*
X57553644Y-58039500D01*
X57553638Y-58039500D01*
X57316887Y-58039500D01*
X57249848Y-58019815D01*
X57229206Y-58003181D01*
X56305516Y-57079491D01*
X56305515Y-57079490D01*
X56179985Y-57007016D01*
X56179980Y-57007014D01*
X56114657Y-56989510D01*
X56114657Y-56989511D01*
X56077315Y-56979505D01*
X56039975Y-56969500D01*
X56039974Y-56969500D01*
X54372086Y-56969500D01*
X54305047Y-56949815D01*
X54265361Y-56904015D01*
X54263519Y-56905052D01*
X54259361Y-56897658D01*
X54167922Y-56777077D01*
X54047343Y-56685639D01*
X53906561Y-56630122D01*
X53860926Y-56624642D01*
X53818102Y-56619500D01*
X52481898Y-56619500D01*
X52442853Y-56624188D01*
X52393438Y-56630122D01*
X52252656Y-56685639D01*
X52132077Y-56777077D01*
X52040639Y-56897656D01*
X51985122Y-57038438D01*
X51980193Y-57079489D01*
X51974500Y-57126898D01*
X51974500Y-57126903D01*
X51974500Y-57865611D01*
X51954815Y-57932650D01*
X51950522Y-57938902D01*
X51944900Y-57946574D01*
X51879490Y-58011985D01*
X51817925Y-58118620D01*
X51814552Y-58124460D01*
X51814549Y-58124466D01*
X51807017Y-58137512D01*
X51807016Y-58137513D01*
X51795034Y-58182232D01*
X51769500Y-58277525D01*
X51769500Y-58277527D01*
X51769500Y-61408025D01*
X51749815Y-61475064D01*
X51697011Y-61520819D01*
X51657082Y-61531483D01*
X51647799Y-61532353D01*
X51647798Y-61532353D01*
X51519619Y-61577206D01*
X51519617Y-61577207D01*
X51410350Y-61657850D01*
X51329707Y-61767117D01*
X51329706Y-61767119D01*
X51284853Y-61895298D01*
X51284853Y-61895300D01*
X51282000Y-61925730D01*
X51282000Y-62334269D01*
X51284853Y-62364699D01*
X51284853Y-62364701D01*
X51328621Y-62489779D01*
X51329707Y-62492882D01*
X51410350Y-62602150D01*
X51519618Y-62682793D01*
X51544936Y-62691652D01*
X51647799Y-62727646D01*
X51678230Y-62730500D01*
X51678234Y-62730500D01*
X52961770Y-62730500D01*
X52982054Y-62728597D01*
X52992199Y-62727646D01*
X53052354Y-62706596D01*
X53122129Y-62703034D01*
X53182757Y-62737762D01*
X53214985Y-62799755D01*
X53215781Y-62843034D01*
X53207000Y-62898479D01*
X53207000Y-63261517D01*
X53214679Y-63310000D01*
X53221854Y-63355304D01*
X53279450Y-63468342D01*
X53279452Y-63468344D01*
X53279454Y-63468347D01*
X53369152Y-63558045D01*
X53369154Y-63558046D01*
X53369158Y-63558050D01*
X53475684Y-63612328D01*
X53482198Y-63615647D01*
X53575975Y-63630499D01*
X53575981Y-63630500D01*
X53986323Y-63630499D01*
X54053362Y-63650183D01*
X54074004Y-63666818D01*
X54770500Y-64363314D01*
X54863686Y-64456500D01*
X54863687Y-64456501D01*
X54863689Y-64456502D01*
X54886202Y-64469500D01*
X54886205Y-64469501D01*
X54977808Y-64522389D01*
X54977809Y-64522389D01*
X54977814Y-64522392D01*
X55105107Y-64556500D01*
X55105108Y-64556500D01*
X55105109Y-64556500D01*
X59339890Y-64556500D01*
X59339892Y-64556500D01*
X59467186Y-64522392D01*
X59581314Y-64456500D01*
X60130994Y-63906817D01*
X60192317Y-63873333D01*
X60218675Y-63870499D01*
X60807871Y-63870499D01*
X60807872Y-63870499D01*
X60867483Y-63864091D01*
X61002331Y-63813796D01*
X61117546Y-63727546D01*
X61203796Y-63612331D01*
X61254091Y-63477483D01*
X61260500Y-63417873D01*
X61260499Y-62828674D01*
X61280183Y-62761636D01*
X61296813Y-62740999D01*
X61861500Y-62176314D01*
X61927392Y-62062186D01*
X61961500Y-61934892D01*
X61961500Y-61803107D01*
X61961500Y-60631383D01*
X61981185Y-60564344D01*
X61997815Y-60543706D01*
X62657821Y-59883699D01*
X62719142Y-59850216D01*
X62788833Y-59855200D01*
X62844767Y-59897071D01*
X62869184Y-59962536D01*
X62869500Y-59971382D01*
X62869500Y-60730001D01*
X62869501Y-60730019D01*
X62880000Y-60832796D01*
X62880001Y-60832799D01*
X62892878Y-60871658D01*
X62935186Y-60999334D01*
X63027288Y-61148656D01*
X63151344Y-61272712D01*
X63300666Y-61364814D01*
X63467203Y-61419999D01*
X63569991Y-61430500D01*
X65511323Y-61430499D01*
X65578362Y-61450184D01*
X65599004Y-61466818D01*
X66243181Y-62110995D01*
X66276666Y-62172318D01*
X66279500Y-62198676D01*
X66279500Y-64461323D01*
X66259815Y-64528362D01*
X66243181Y-64549004D01*
X66241944Y-64550241D01*
X66180621Y-64583726D01*
X66110929Y-64578742D01*
X66054996Y-64536870D01*
X66030579Y-64471406D01*
X66030731Y-64460161D01*
X66030500Y-64460161D01*
X66030500Y-64325928D01*
X66005502Y-64200261D01*
X66005501Y-64200260D01*
X66005501Y-64200256D01*
X65956465Y-64081873D01*
X65956464Y-64081872D01*
X65956461Y-64081866D01*
X65885276Y-63975331D01*
X65885273Y-63975327D01*
X65794672Y-63884726D01*
X65794668Y-63884723D01*
X65688133Y-63813538D01*
X65688124Y-63813533D01*
X65569744Y-63764499D01*
X65569738Y-63764497D01*
X65444071Y-63739500D01*
X65444069Y-63739500D01*
X65315931Y-63739500D01*
X65315929Y-63739500D01*
X65190261Y-63764497D01*
X65190255Y-63764499D01*
X65071875Y-63813533D01*
X65071866Y-63813538D01*
X64989459Y-63868602D01*
X64922782Y-63889480D01*
X64920568Y-63889500D01*
X62575968Y-63889500D01*
X62448672Y-63923608D01*
X62334546Y-63989500D01*
X62334543Y-63989502D01*
X61115516Y-65208528D01*
X61054193Y-65242013D01*
X60984501Y-65237029D01*
X60953524Y-65220113D01*
X60874835Y-65161206D01*
X60874828Y-65161202D01*
X60739986Y-65110910D01*
X60739985Y-65110909D01*
X60739983Y-65110909D01*
X60680373Y-65104500D01*
X60680363Y-65104500D01*
X59909629Y-65104500D01*
X59909623Y-65104501D01*
X59850016Y-65110908D01*
X59715171Y-65161202D01*
X59715164Y-65161206D01*
X59599955Y-65247452D01*
X59599952Y-65247455D01*
X59513706Y-65362664D01*
X59513701Y-65362674D01*
X59506317Y-65382471D01*
X59464445Y-65438404D01*
X59398980Y-65462820D01*
X59330707Y-65447967D01*
X59281303Y-65398561D01*
X59272430Y-65378140D01*
X59241858Y-65285880D01*
X59241856Y-65285875D01*
X59149815Y-65136654D01*
X59025845Y-65012684D01*
X58876624Y-64920643D01*
X58876619Y-64920641D01*
X58710197Y-64865494D01*
X58710190Y-64865493D01*
X58607486Y-64855000D01*
X58470000Y-64855000D01*
X58470000Y-65956000D01*
X58450315Y-66023039D01*
X58397511Y-66068794D01*
X58346000Y-66080000D01*
X58220000Y-66080000D01*
X58220000Y-66206000D01*
X58200315Y-66273039D01*
X58147511Y-66318794D01*
X58096000Y-66330000D01*
X57132501Y-66330000D01*
X57132501Y-66604986D01*
X57142994Y-66707697D01*
X57198141Y-66874119D01*
X57198144Y-66874126D01*
X57208184Y-66890402D01*
X57226625Y-66957794D01*
X57205703Y-67024458D01*
X57152062Y-67069228D01*
X57102646Y-67079500D01*
X55489224Y-67079500D01*
X55422185Y-67059815D01*
X55376430Y-67007011D01*
X55366486Y-66937853D01*
X55380733Y-66897375D01*
X55380685Y-66897354D01*
X55380986Y-66896658D01*
X55382492Y-66892380D01*
X55383780Y-66890200D01*
X55429600Y-66732486D01*
X55429795Y-66730001D01*
X55429795Y-66730000D01*
X54445000Y-66730000D01*
X54445000Y-67293791D01*
X54461896Y-67324734D01*
X54456912Y-67394426D01*
X54428411Y-67438773D01*
X54074003Y-67793181D01*
X54012680Y-67826666D01*
X53986322Y-67829500D01*
X53575981Y-67829500D01*
X53486123Y-67843732D01*
X53416830Y-67834776D01*
X53363379Y-67789779D01*
X53342740Y-67723027D01*
X53349687Y-67680300D01*
X53355146Y-67664699D01*
X53358000Y-67634269D01*
X53358000Y-67398948D01*
X53377685Y-67331909D01*
X53430489Y-67286154D01*
X53499647Y-67276210D01*
X53504297Y-67276969D01*
X53505018Y-67277100D01*
X53541850Y-67279999D01*
X53541866Y-67280000D01*
X53945000Y-67280000D01*
X53945000Y-66730000D01*
X52960205Y-66730000D01*
X52947412Y-66743838D01*
X52943145Y-66764152D01*
X52894091Y-66813907D01*
X52833893Y-66829500D01*
X51678230Y-66829500D01*
X51647800Y-66832353D01*
X51647798Y-66832353D01*
X51519619Y-66877206D01*
X51519617Y-66877207D01*
X51410350Y-66957850D01*
X51329707Y-67067117D01*
X51329706Y-67067119D01*
X51284853Y-67195298D01*
X51284853Y-67195300D01*
X51282000Y-67225730D01*
X51282000Y-67637165D01*
X51280728Y-67637165D01*
X51265353Y-67700201D01*
X51245729Y-67725746D01*
X51243490Y-67727984D01*
X51243485Y-67727992D01*
X51188296Y-67823583D01*
X51188294Y-67823587D01*
X51181181Y-67835909D01*
X51171016Y-67853515D01*
X51133500Y-67993525D01*
X50250500Y-67993525D01*
X50250500Y-66229998D01*
X52960204Y-66229998D01*
X52960205Y-66230000D01*
X53945000Y-66230000D01*
X54445000Y-66230000D01*
X55429795Y-66230000D01*
X55429795Y-66229998D01*
X55429600Y-66227513D01*
X55383781Y-66069801D01*
X55300185Y-65928447D01*
X55300178Y-65928438D01*
X55184061Y-65812321D01*
X55184052Y-65812314D01*
X55042696Y-65728717D01*
X55042693Y-65728716D01*
X54884995Y-65682900D01*
X54884989Y-65682899D01*
X54848149Y-65680000D01*
X54445000Y-65680000D01*
X54445000Y-66230000D01*
X53945000Y-66230000D01*
X53945000Y-65680000D01*
X53541850Y-65680000D01*
X53505010Y-65682899D01*
X53505004Y-65682900D01*
X53347306Y-65728716D01*
X53347303Y-65728717D01*
X53205947Y-65812314D01*
X53205938Y-65812321D01*
X53089821Y-65928438D01*
X53089814Y-65928447D01*
X53006218Y-66069801D01*
X52960399Y-66227513D01*
X52960204Y-66229998D01*
X50250500Y-66229998D01*
X50250500Y-65555013D01*
X57132500Y-65555013D01*
X57132500Y-65830000D01*
X57970000Y-65830000D01*
X57970000Y-64855000D01*
X57832527Y-64855000D01*
X57832512Y-64855001D01*
X57729802Y-64865494D01*
X57563380Y-64920641D01*
X57563375Y-64920643D01*
X57414154Y-65012684D01*
X57290184Y-65136654D01*
X57198143Y-65285875D01*
X57198141Y-65285880D01*
X57142994Y-65452302D01*
X57142993Y-65452309D01*
X57132500Y-65555013D01*
X50250500Y-65555013D01*
X50250500Y-52040060D01*
X50270185Y-51973021D01*
X50322989Y-51927266D01*
X50392147Y-51917322D01*
X50455703Y-51946347D01*
X50492430Y-52001739D01*
X50521116Y-52090025D01*
X50610476Y-52265405D01*
X50726172Y-52424646D01*
X50865354Y-52563828D01*
X51024595Y-52679524D01*
X51107455Y-52721743D01*
X51199970Y-52768882D01*
X51199972Y-52768882D01*
X51199975Y-52768884D01*
X51230752Y-52778884D01*
X51387173Y-52829709D01*
X51581578Y-52860500D01*
X51581583Y-52860500D01*
X51778422Y-52860500D01*
X51972826Y-52829709D01*
X52160025Y-52768884D01*
X52335405Y-52679524D01*
X52494646Y-52563828D01*
X52633828Y-52424646D01*
X52749524Y-52265405D01*
X52838884Y-52090025D01*
X52899709Y-51902826D01*
X52911629Y-51827568D01*
X52930500Y-51708422D01*
X52930500Y-51511577D01*
X52899709Y-51317173D01*
X52855118Y-51179939D01*
X52838884Y-51129975D01*
X52838882Y-51129972D01*
X52838882Y-51129970D01*
X52754619Y-50964595D01*
X52749524Y-50954595D01*
X52633828Y-50795354D01*
X52494646Y-50656172D01*
X52335405Y-50540476D01*
X52226496Y-50484984D01*
X52175701Y-50437011D01*
X52158906Y-50369190D01*
X52181443Y-50303055D01*
X52236158Y-50259603D01*
X52282792Y-50250500D01*
X77816834Y-50250500D01*
X77822946Y-50252294D01*
G37*
%TD.AperFunction*%
%TD*%
M02*
