M48
; DRILL file {KiCad 9.0.1+1} date 2025-04-24T10:04:17-0300
; FORMAT={-:-/ absolute / metric / decimal}
; #@! TF.CreationDate,2025-04-24T10:04:17-03:00
; #@! TF.GenerationSoftware,Kicad,Pcbnew,9.0.1+1
; #@! TF.FileFunction,Plated,1,2,PTH
FMAT,2
METRIC
; #@! TA.AperFunction,Plated,PTH,ViaDrill
T1C0.400
; #@! TA.AperFunction,Plated,PTH,ComponentDrill
T2C0.750
; #@! TA.AperFunction,Plated,PTH,ComponentDrill
T3C2.200
%
G90
G05
T1
X56.28Y-63.04
X56.28Y-65.24
X56.37Y-59.99
X56.39Y-53.45
X56.89Y-70.75
X58.08Y-67.58
X60.32Y-72.59
X60.98Y-68.87
X63.883Y-65.24
X65.03Y-58.47
X65.38Y-64.39
X68.02Y-69.82
X68.2Y-67.46
X69.47Y-64.72
X72.85Y-57.35
X73.52Y-66.5
X74.11Y-69.32
T2
X53.11Y-72.44
X53.11Y-74.44
X53.15Y-55.52
X53.15Y-57.52
X59.96Y-54.44
X61.96Y-54.44
X63.96Y-54.44
X65.96Y-54.44
X67.96Y-54.44
X69.96Y-54.44
X76.89Y-55.57
X76.89Y-57.57
X77.0Y-72.48
X77.0Y-74.48
T3
X62.22Y-74.58
X68.02Y-74.58
M30
