%TF.GenerationSoftware,KiCad,Pcbnew,9.0.1+1*%
%TF.CreationDate,2025-04-24T10:04:14-03:00*%
%TF.ProjectId,droninho,64726f6e-696e-4686-9f2e-6b696361645f,rev?*%
%TF.SameCoordinates,Original*%
%TF.FileFunction,Copper,L2,Bot*%
%TF.FilePolarity,Positive*%
%FSLAX46Y46*%
G04 Gerber Fmt 4.6, Leading zero omitted, Abs format (unit mm)*
G04 Created by KiCad (PCBNEW 9.0.1+1) date 2025-04-24 10:04:14*
%MOMM*%
%LPD*%
G01*
G04 APERTURE LIST*
G04 Aperture macros list*
%AMRoundRect*
0 Rectangle with rounded corners*
0 $1 Rounding radius*
0 $2 $3 $4 $5 $6 $7 $8 $9 X,Y pos of 4 corners*
0 Add a 4 corners polygon primitive as box body*
4,1,4,$2,$3,$4,$5,$6,$7,$8,$9,$2,$3,0*
0 Add four circle primitives for the rounded corners*
1,1,$1+$1,$2,$3*
1,1,$1+$1,$4,$5*
1,1,$1+$1,$6,$7*
1,1,$1+$1,$8,$9*
0 Add four rect primitives between the rounded corners*
20,1,$1+$1,$2,$3,$4,$5,0*
20,1,$1+$1,$4,$5,$6,$7,0*
20,1,$1+$1,$6,$7,$8,$9,0*
20,1,$1+$1,$8,$9,$2,$3,0*%
G04 Aperture macros list end*
%TA.AperFunction,ComponentPad*%
%ADD10RoundRect,0.250000X-0.350000X-0.625000X0.350000X-0.625000X0.350000X0.625000X-0.350000X0.625000X0*%
%TD*%
%TA.AperFunction,ComponentPad*%
%ADD11O,1.200000X1.750000*%
%TD*%
%TA.AperFunction,ComponentPad*%
%ADD12RoundRect,0.250000X0.625000X-0.350000X0.625000X0.350000X-0.625000X0.350000X-0.625000X-0.350000X0*%
%TD*%
%TA.AperFunction,ComponentPad*%
%ADD13O,1.750000X1.200000*%
%TD*%
%TA.AperFunction,ComponentPad*%
%ADD14C,2.600000*%
%TD*%
%TA.AperFunction,ConnectorPad*%
%ADD15C,4.400000*%
%TD*%
%TA.AperFunction,ComponentPad*%
%ADD16RoundRect,0.250000X-0.625000X0.350000X-0.625000X-0.350000X0.625000X-0.350000X0.625000X0.350000X0*%
%TD*%
%TA.AperFunction,ViaPad*%
%ADD17C,0.800000*%
%TD*%
%TA.AperFunction,Conductor*%
%ADD18C,0.500000*%
%TD*%
G04 APERTURE END LIST*
D10*
%TO.P,J1,1,Pin_1*%
%TO.N,/+3.3V*%
X59960000Y-54440000D03*
D11*
%TO.P,J1,2,Pin_2*%
%TO.N,GND*%
X61960000Y-54440000D03*
%TO.P,J1,3,Pin_3*%
%TO.N,/PWM1*%
X63960000Y-54440000D03*
%TO.P,J1,4,Pin_4*%
%TO.N,/PWM2*%
X65960000Y-54440000D03*
%TO.P,J1,5,Pin_5*%
%TO.N,/PWM3*%
X67960000Y-54440000D03*
%TO.P,J1,6,Pin_6*%
%TO.N,/PWM4*%
X69960000Y-54440000D03*
%TD*%
D12*
%TO.P,J2,1,Pin_1*%
%TO.N,/M1-*%
X53150000Y-57520000D03*
D13*
%TO.P,J2,2,Pin_2*%
%TO.N,/+3.3V*%
X53150000Y-55520000D03*
%TD*%
D14*
%TO.P,H3,1,1*%
%TO.N,/BAT+*%
X62220000Y-74580000D03*
D15*
X62220000Y-74580000D03*
%TD*%
D12*
%TO.P,J5,1,Pin_1*%
%TO.N,/M4-*%
X53110000Y-74440000D03*
D13*
%TO.P,J5,2,Pin_2*%
%TO.N,/+3.3V*%
X53110000Y-72440000D03*
%TD*%
D14*
%TO.P,H4,1,1*%
%TO.N,GND*%
X68020000Y-74580000D03*
D15*
X68020000Y-74580000D03*
%TD*%
D16*
%TO.P,J3,1,Pin_1*%
%TO.N,/M2-*%
X76890000Y-55570000D03*
D13*
%TO.P,J3,2,Pin_2*%
%TO.N,/+3.3V*%
X76890000Y-57570000D03*
%TD*%
D16*
%TO.P,J4,1,Pin_1*%
%TO.N,/M3-*%
X77000000Y-72480000D03*
D13*
%TO.P,J4,2,Pin_2*%
%TO.N,/+3.3V*%
X77000000Y-74480000D03*
%TD*%
D17*
%TO.N,GND*%
X56370000Y-59990000D03*
X63883152Y-65240000D03*
X56280000Y-65240000D03*
X68020000Y-69820000D03*
X56280000Y-63040000D03*
X56390000Y-53450000D03*
%TO.N,/PWM3*%
X73520000Y-66500000D03*
X74110000Y-69320000D03*
%TO.N,/PWM4*%
X58080000Y-67580000D03*
%TO.N,/BAT+*%
X60320000Y-72590000D03*
X68200000Y-67460000D03*
X60980000Y-68870000D03*
X65380000Y-64390000D03*
%TO.N,/+3.3V*%
X72850000Y-57350000D03*
X56890000Y-70750000D03*
X69470000Y-64720000D03*
X65030000Y-58470000D03*
%TD*%
D18*
%TO.N,GND*%
X68020000Y-74580000D02*
X68020000Y-69820000D01*
X56390000Y-53450000D02*
X56390000Y-59970000D01*
X56280000Y-66983496D02*
X56280000Y-65240000D01*
X68020000Y-69376848D02*
X63883152Y-65240000D01*
X61960000Y-54440000D02*
X61960000Y-54830000D01*
X58432496Y-68431000D02*
X57727504Y-68431000D01*
X56390000Y-59970000D02*
X56370000Y-59990000D01*
X63883152Y-65240000D02*
X61623496Y-65240000D01*
X57727504Y-68431000D02*
X56280000Y-66983496D01*
X56280000Y-65240000D02*
X56280000Y-63040000D01*
X61623496Y-65240000D02*
X58432496Y-68431000D01*
X68020000Y-69820000D02*
X68020000Y-69376848D01*
%TO.N,/PWM3*%
X74110000Y-67090000D02*
X73520000Y-66500000D01*
X67960000Y-60940000D02*
X73520000Y-66500000D01*
X67960000Y-54440000D02*
X67960000Y-60940000D01*
X74110000Y-69320000D02*
X74110000Y-67090000D01*
%TO.N,/PWM4*%
X58080000Y-54250000D02*
X59216000Y-53114000D01*
X59216000Y-53114000D02*
X68634000Y-53114000D01*
X68634000Y-53114000D02*
X69960000Y-54440000D01*
X58080000Y-67580000D02*
X58080000Y-54250000D01*
%TO.N,/BAT+*%
X60320000Y-69530000D02*
X60980000Y-68870000D01*
X65380000Y-64640000D02*
X68200000Y-67460000D01*
X65380000Y-64390000D02*
X65380000Y-64640000D01*
X60320000Y-72590000D02*
X60320000Y-69530000D01*
%TO.N,/+3.3V*%
X69470000Y-64720000D02*
X69470000Y-67775000D01*
X56890000Y-70750000D02*
X56890000Y-72999081D01*
X63990000Y-58470000D02*
X59960000Y-54440000D01*
X74249000Y-77231000D02*
X77000000Y-74480000D01*
X76175000Y-74480000D02*
X77000000Y-74480000D01*
X69470000Y-67775000D02*
X76175000Y-74480000D01*
X72850000Y-57350000D02*
X76670000Y-57350000D01*
X65030000Y-58470000D02*
X63990000Y-58470000D01*
X56890000Y-72999081D02*
X61121919Y-77231000D01*
X61121919Y-77231000D02*
X74249000Y-77231000D01*
X76670000Y-57350000D02*
X76890000Y-57570000D01*
%TD*%
%TA.AperFunction,Conductor*%
%TO.N,GND*%
G36*
X77883873Y-50270185D02*
G01*
X77929628Y-50322989D01*
X77939572Y-50392147D01*
X77910547Y-50455703D01*
X77873129Y-50484985D01*
X77744594Y-50550476D01*
X77653741Y-50616485D01*
X77585354Y-50666172D01*
X77585352Y-50666174D01*
X77585351Y-50666174D01*
X77446174Y-50805351D01*
X77446174Y-50805352D01*
X77446172Y-50805354D01*
X77403484Y-50864109D01*
X77330476Y-50964594D01*
X77241117Y-51139970D01*
X77180290Y-51327173D01*
X77149500Y-51521577D01*
X77149500Y-51718422D01*
X77180290Y-51912826D01*
X77241117Y-52100029D01*
X77289907Y-52195784D01*
X77330476Y-52275405D01*
X77446172Y-52434646D01*
X77585354Y-52573828D01*
X77744595Y-52689524D01*
X77791651Y-52713500D01*
X77919970Y-52778882D01*
X77919972Y-52778882D01*
X77919975Y-52778884D01*
X78020317Y-52811487D01*
X78107173Y-52839709D01*
X78301578Y-52870500D01*
X78301583Y-52870500D01*
X78498422Y-52870500D01*
X78692826Y-52839709D01*
X78880025Y-52778884D01*
X79055405Y-52689524D01*
X79214646Y-52573828D01*
X79353828Y-52434646D01*
X79469524Y-52275405D01*
X79515015Y-52186122D01*
X79562989Y-52135327D01*
X79630810Y-52118532D01*
X79696945Y-52141069D01*
X79740397Y-52195784D01*
X79749500Y-52242418D01*
X79749500Y-79625500D01*
X79729815Y-79692539D01*
X79677011Y-79738294D01*
X79625500Y-79749500D01*
X78601613Y-79749500D01*
X78534574Y-79729815D01*
X78488819Y-79677011D01*
X78478875Y-79607853D01*
X78507900Y-79544297D01*
X78563292Y-79507569D01*
X78590025Y-79498884D01*
X78765405Y-79409524D01*
X78924646Y-79293828D01*
X79063828Y-79154646D01*
X79179524Y-78995405D01*
X79268884Y-78820025D01*
X79329709Y-78632826D01*
X79330713Y-78626490D01*
X79360500Y-78438422D01*
X79360500Y-78241577D01*
X79329709Y-78047173D01*
X79268882Y-77859970D01*
X79203423Y-77731500D01*
X79179524Y-77684595D01*
X79063828Y-77525354D01*
X78924646Y-77386172D01*
X78765405Y-77270476D01*
X78590029Y-77181117D01*
X78402826Y-77120290D01*
X78208422Y-77089500D01*
X78208417Y-77089500D01*
X78011583Y-77089500D01*
X78011578Y-77089500D01*
X77817173Y-77120290D01*
X77629970Y-77181117D01*
X77454594Y-77270476D01*
X77363741Y-77336485D01*
X77295354Y-77386172D01*
X77295352Y-77386174D01*
X77295351Y-77386174D01*
X77156174Y-77525351D01*
X77156174Y-77525352D01*
X77156172Y-77525354D01*
X77146756Y-77538314D01*
X77040476Y-77684594D01*
X76951117Y-77859970D01*
X76890290Y-78047173D01*
X76859500Y-78241577D01*
X76859500Y-78438422D01*
X76890290Y-78632826D01*
X76951117Y-78820029D01*
X77001735Y-78919371D01*
X77040476Y-78995405D01*
X77156172Y-79154646D01*
X77295354Y-79293828D01*
X77454595Y-79409524D01*
X77537455Y-79451743D01*
X77629970Y-79498882D01*
X77629972Y-79498882D01*
X77629975Y-79498884D01*
X77656707Y-79507569D01*
X77714381Y-79547007D01*
X77741579Y-79611366D01*
X77729664Y-79680212D01*
X77682420Y-79731688D01*
X77618387Y-79749500D01*
X52181613Y-79749500D01*
X52114574Y-79729815D01*
X52068819Y-79677011D01*
X52058875Y-79607853D01*
X52087900Y-79544297D01*
X52143292Y-79507569D01*
X52170025Y-79498884D01*
X52345405Y-79409524D01*
X52504646Y-79293828D01*
X52643828Y-79154646D01*
X52759524Y-78995405D01*
X52848884Y-78820025D01*
X52909709Y-78632826D01*
X52910713Y-78626490D01*
X52940500Y-78438422D01*
X52940500Y-78241577D01*
X52909709Y-78047173D01*
X52848882Y-77859970D01*
X52783423Y-77731500D01*
X52759524Y-77684595D01*
X52643828Y-77525354D01*
X52504646Y-77386172D01*
X52345405Y-77270476D01*
X52170029Y-77181117D01*
X51982826Y-77120290D01*
X51788422Y-77089500D01*
X51788417Y-77089500D01*
X51591583Y-77089500D01*
X51591578Y-77089500D01*
X51397173Y-77120290D01*
X51209970Y-77181117D01*
X51034594Y-77270476D01*
X50943741Y-77336485D01*
X50875354Y-77386172D01*
X50875352Y-77386174D01*
X50875351Y-77386174D01*
X50736174Y-77525351D01*
X50736174Y-77525352D01*
X50736172Y-77525354D01*
X50726756Y-77538314D01*
X50620476Y-77684594D01*
X50531117Y-77859970D01*
X50492431Y-77979034D01*
X50452993Y-78036709D01*
X50388634Y-78063907D01*
X50319788Y-78051992D01*
X50268312Y-78004747D01*
X50250500Y-77940715D01*
X50250500Y-74046898D01*
X51934500Y-74046898D01*
X51934500Y-74833102D01*
X51938468Y-74866142D01*
X51945122Y-74921561D01*
X51945122Y-74921563D01*
X51945123Y-74921564D01*
X51954360Y-74944988D01*
X52000639Y-75062343D01*
X52092077Y-75182922D01*
X52212656Y-75274360D01*
X52212657Y-75274360D01*
X52212658Y-75274361D01*
X52353436Y-75329877D01*
X52441898Y-75340500D01*
X52441903Y-75340500D01*
X53778097Y-75340500D01*
X53778102Y-75340500D01*
X53866564Y-75329877D01*
X54007342Y-75274361D01*
X54127922Y-75182922D01*
X54219361Y-75062342D01*
X54274877Y-74921564D01*
X54285500Y-74833102D01*
X54285500Y-74046898D01*
X54274877Y-73958436D01*
X54219361Y-73817658D01*
X54219360Y-73817657D01*
X54219360Y-73817656D01*
X54127922Y-73697077D01*
X54007343Y-73605639D01*
X53866561Y-73550122D01*
X53820926Y-73544642D01*
X53778102Y-73539500D01*
X52441898Y-73539500D01*
X52402853Y-73544188D01*
X52353438Y-73550122D01*
X52212656Y-73605639D01*
X52092077Y-73697077D01*
X52000639Y-73817656D01*
X51945122Y-73958438D01*
X51939714Y-74003475D01*
X51934500Y-74046898D01*
X50250500Y-74046898D01*
X50250500Y-72356228D01*
X51984500Y-72356228D01*
X51984500Y-72523771D01*
X52017182Y-72688074D01*
X52017184Y-72688082D01*
X52081295Y-72842860D01*
X52174373Y-72982162D01*
X52292837Y-73100626D01*
X52385494Y-73162537D01*
X52432137Y-73193703D01*
X52586918Y-73257816D01*
X52732974Y-73286868D01*
X52751228Y-73290499D01*
X52751232Y-73290500D01*
X52751233Y-73290500D01*
X53468768Y-73290500D01*
X53468769Y-73290499D01*
X53633082Y-73257816D01*
X53787863Y-73193703D01*
X53927162Y-73100626D01*
X54045626Y-72982162D01*
X54138703Y-72842863D01*
X54202816Y-72688082D01*
X54235500Y-72523767D01*
X54235500Y-72356233D01*
X54202816Y-72191918D01*
X54138703Y-72037137D01*
X54101483Y-71981434D01*
X54045626Y-71897837D01*
X53927162Y-71779373D01*
X53787860Y-71686295D01*
X53633082Y-71622184D01*
X53633074Y-71622182D01*
X53468771Y-71589500D01*
X53468767Y-71589500D01*
X52751233Y-71589500D01*
X52751228Y-71589500D01*
X52586925Y-71622182D01*
X52586917Y-71622184D01*
X52432139Y-71686295D01*
X52292837Y-71779373D01*
X52174373Y-71897837D01*
X52081295Y-72037139D01*
X52017184Y-72191917D01*
X52017182Y-72191925D01*
X51984500Y-72356228D01*
X50250500Y-72356228D01*
X50250500Y-70814071D01*
X56239499Y-70814071D01*
X56264497Y-70939738D01*
X56264499Y-70939744D01*
X56313533Y-71058124D01*
X56313538Y-71058133D01*
X56368602Y-71140541D01*
X56389480Y-71207218D01*
X56389500Y-71209432D01*
X56389500Y-73064972D01*
X56423608Y-73192268D01*
X56442435Y-73224876D01*
X56489500Y-73306395D01*
X56489501Y-73306396D01*
X56489502Y-73306397D01*
X60717078Y-77533972D01*
X60717088Y-77533983D01*
X60721418Y-77538313D01*
X60721419Y-77538314D01*
X60814605Y-77631500D01*
X60896877Y-77679000D01*
X60906568Y-77684595D01*
X60906570Y-77684596D01*
X60928730Y-77697391D01*
X60928732Y-77697391D01*
X60928733Y-77697392D01*
X61056026Y-77731500D01*
X61056027Y-77731500D01*
X61056028Y-77731500D01*
X74314890Y-77731500D01*
X74314892Y-77731500D01*
X74442186Y-77697392D01*
X74556314Y-77631500D01*
X76820995Y-75366819D01*
X76882318Y-75333334D01*
X76908676Y-75330500D01*
X77358768Y-75330500D01*
X77358769Y-75330499D01*
X77523082Y-75297816D01*
X77677863Y-75233703D01*
X77817162Y-75140626D01*
X77935626Y-75022162D01*
X78028703Y-74882863D01*
X78092816Y-74728082D01*
X78125500Y-74563767D01*
X78125500Y-74396233D01*
X78092816Y-74231918D01*
X78028703Y-74077137D01*
X77997537Y-74030494D01*
X77935626Y-73937837D01*
X77817162Y-73819373D01*
X77677860Y-73726295D01*
X77523082Y-73662184D01*
X77523074Y-73662182D01*
X77358771Y-73629500D01*
X77358767Y-73629500D01*
X76641233Y-73629500D01*
X76641228Y-73629500D01*
X76476925Y-73662182D01*
X76476917Y-73662184D01*
X76322138Y-73726296D01*
X76291039Y-73747076D01*
X76224361Y-73767953D01*
X76156981Y-73749468D01*
X76134468Y-73731654D01*
X74489712Y-72086898D01*
X75824500Y-72086898D01*
X75824500Y-72873102D01*
X75827505Y-72898124D01*
X75835122Y-72961561D01*
X75890639Y-73102343D01*
X75982077Y-73222922D01*
X76102656Y-73314360D01*
X76102657Y-73314360D01*
X76102658Y-73314361D01*
X76243436Y-73369877D01*
X76331898Y-73380500D01*
X76331903Y-73380500D01*
X77668097Y-73380500D01*
X77668102Y-73380500D01*
X77756564Y-73369877D01*
X77897342Y-73314361D01*
X78017922Y-73222922D01*
X78109361Y-73102342D01*
X78164877Y-72961564D01*
X78175500Y-72873102D01*
X78175500Y-72086898D01*
X78164877Y-71998436D01*
X78109361Y-71857658D01*
X78109360Y-71857657D01*
X78109360Y-71857656D01*
X78017922Y-71737077D01*
X77897343Y-71645639D01*
X77756561Y-71590122D01*
X77710926Y-71584642D01*
X77668102Y-71579500D01*
X76331898Y-71579500D01*
X76292853Y-71584188D01*
X76243438Y-71590122D01*
X76102656Y-71645639D01*
X75982077Y-71737077D01*
X75890639Y-71857656D01*
X75835122Y-71998438D01*
X75830475Y-72037139D01*
X75824500Y-72086898D01*
X74489712Y-72086898D01*
X70006819Y-67604005D01*
X69973334Y-67542682D01*
X69970500Y-67516324D01*
X69970500Y-65179432D01*
X69990185Y-65112393D01*
X69991398Y-65110541D01*
X70046461Y-65028133D01*
X70046461Y-65028132D01*
X70046465Y-65028127D01*
X70095501Y-64909744D01*
X70116402Y-64804672D01*
X70120500Y-64784071D01*
X70120500Y-64655928D01*
X70095502Y-64530261D01*
X70095501Y-64530260D01*
X70095501Y-64530256D01*
X70046465Y-64411873D01*
X70046464Y-64411872D01*
X70046461Y-64411866D01*
X69975276Y-64305331D01*
X69975273Y-64305327D01*
X69884672Y-64214726D01*
X69884668Y-64214723D01*
X69778133Y-64143538D01*
X69778124Y-64143533D01*
X69659744Y-64094499D01*
X69659738Y-64094497D01*
X69534071Y-64069500D01*
X69534069Y-64069500D01*
X69405931Y-64069500D01*
X69405929Y-64069500D01*
X69280261Y-64094497D01*
X69280255Y-64094499D01*
X69161875Y-64143533D01*
X69161866Y-64143538D01*
X69055331Y-64214723D01*
X69055327Y-64214726D01*
X68964726Y-64305327D01*
X68964723Y-64305331D01*
X68893538Y-64411866D01*
X68893533Y-64411875D01*
X68844499Y-64530255D01*
X68844497Y-64530261D01*
X68819500Y-64655928D01*
X68819500Y-64655931D01*
X68819500Y-64784069D01*
X68819500Y-64784071D01*
X68819499Y-64784071D01*
X68844497Y-64909738D01*
X68844499Y-64909744D01*
X68893533Y-65028124D01*
X68893538Y-65028133D01*
X68948602Y-65110541D01*
X68969480Y-65177218D01*
X68969500Y-65179432D01*
X68969500Y-67031996D01*
X68949815Y-67099035D01*
X68897011Y-67144790D01*
X68827853Y-67154734D01*
X68764297Y-67125709D01*
X68742398Y-67100887D01*
X68705276Y-67045331D01*
X68705273Y-67045327D01*
X68614672Y-66954726D01*
X68614668Y-66954723D01*
X68508133Y-66883538D01*
X68508124Y-66883533D01*
X68389744Y-66834499D01*
X68389738Y-66834497D01*
X68292526Y-66815160D01*
X68230615Y-66782775D01*
X68229037Y-66781224D01*
X66056027Y-64608213D01*
X66022542Y-64546890D01*
X66022091Y-64496341D01*
X66030500Y-64454069D01*
X66030500Y-64325931D01*
X66030500Y-64325928D01*
X66005502Y-64200261D01*
X66005501Y-64200260D01*
X66005501Y-64200256D01*
X65956465Y-64081873D01*
X65956464Y-64081872D01*
X65956461Y-64081866D01*
X65885276Y-63975331D01*
X65885273Y-63975327D01*
X65794672Y-63884726D01*
X65794668Y-63884723D01*
X65688133Y-63813538D01*
X65688124Y-63813533D01*
X65569744Y-63764499D01*
X65569738Y-63764497D01*
X65444071Y-63739500D01*
X65444069Y-63739500D01*
X65315931Y-63739500D01*
X65315929Y-63739500D01*
X65190261Y-63764497D01*
X65190255Y-63764499D01*
X65071875Y-63813533D01*
X65071866Y-63813538D01*
X64965331Y-63884723D01*
X64965327Y-63884726D01*
X64874726Y-63975327D01*
X64874723Y-63975331D01*
X64803538Y-64081866D01*
X64803533Y-64081875D01*
X64754499Y-64200255D01*
X64754497Y-64200261D01*
X64729500Y-64325928D01*
X64729500Y-64325931D01*
X64729500Y-64454069D01*
X64729500Y-64454071D01*
X64729499Y-64454071D01*
X64754497Y-64579738D01*
X64754499Y-64579744D01*
X64803533Y-64698124D01*
X64803538Y-64698133D01*
X64874723Y-64804668D01*
X64874726Y-64804672D01*
X64916224Y-64846169D01*
X64935931Y-64871851D01*
X64979497Y-64947310D01*
X64979502Y-64947316D01*
X67521224Y-67489037D01*
X67554709Y-67550360D01*
X67555160Y-67552526D01*
X67574497Y-67649738D01*
X67574499Y-67649744D01*
X67623533Y-67768124D01*
X67623538Y-67768133D01*
X67694723Y-67874668D01*
X67694726Y-67874672D01*
X67785327Y-67965273D01*
X67785331Y-67965276D01*
X67891866Y-68036461D01*
X67891872Y-68036464D01*
X67891873Y-68036465D01*
X68010256Y-68085501D01*
X68010260Y-68085501D01*
X68010261Y-68085502D01*
X68135928Y-68110500D01*
X68135931Y-68110500D01*
X68264071Y-68110500D01*
X68348615Y-68093682D01*
X68389744Y-68085501D01*
X68508127Y-68036465D01*
X68614669Y-67965276D01*
X68705276Y-67874669D01*
X68727845Y-67840892D01*
X68748286Y-67810301D01*
X68801898Y-67765495D01*
X68871223Y-67756788D01*
X68934250Y-67786942D01*
X68970970Y-67846385D01*
X68971163Y-67847098D01*
X69003608Y-67968187D01*
X69036554Y-68025250D01*
X69069500Y-68082314D01*
X69069502Y-68082316D01*
X75792004Y-74804819D01*
X75825489Y-74866142D01*
X75820505Y-74935834D01*
X75792004Y-74980181D01*
X74078005Y-76694181D01*
X74016682Y-76727666D01*
X73990324Y-76730500D01*
X69868309Y-76730500D01*
X69801270Y-76710815D01*
X69780628Y-76694181D01*
X68602737Y-75516290D01*
X68736602Y-75419033D01*
X68859033Y-75296602D01*
X68956290Y-75162737D01*
X70098126Y-76304573D01*
X70225484Y-76144872D01*
X70386827Y-75888096D01*
X70518401Y-75614880D01*
X70518407Y-75614866D01*
X70618561Y-75328645D01*
X70618565Y-75328633D01*
X70686045Y-75032982D01*
X70686047Y-75032966D01*
X70719999Y-74731633D01*
X70720000Y-74731631D01*
X70720000Y-74428368D01*
X70719999Y-74428366D01*
X70686047Y-74127033D01*
X70686045Y-74127017D01*
X70618565Y-73831366D01*
X70618561Y-73831354D01*
X70518407Y-73545133D01*
X70518401Y-73545119D01*
X70386827Y-73271903D01*
X70225484Y-73015127D01*
X70098127Y-72855425D01*
X68956290Y-73997262D01*
X68859033Y-73863398D01*
X68736602Y-73740967D01*
X68602736Y-73643709D01*
X69744573Y-72501871D01*
X69584872Y-72374515D01*
X69328096Y-72213172D01*
X69054880Y-72081598D01*
X69054866Y-72081592D01*
X68768645Y-71981438D01*
X68768633Y-71981434D01*
X68472982Y-71913954D01*
X68472966Y-71913952D01*
X68171633Y-71880000D01*
X67868366Y-71880000D01*
X67567033Y-71913952D01*
X67567017Y-71913954D01*
X67271366Y-71981434D01*
X67271354Y-71981438D01*
X66985133Y-72081592D01*
X66985119Y-72081598D01*
X66711903Y-72213172D01*
X66455127Y-72374515D01*
X66295425Y-72501871D01*
X67437263Y-73643709D01*
X67303398Y-73740967D01*
X67180967Y-73863398D01*
X67083709Y-73997263D01*
X65941871Y-72855425D01*
X65814515Y-73015127D01*
X65653172Y-73271903D01*
X65521598Y-73545119D01*
X65521592Y-73545133D01*
X65421438Y-73831354D01*
X65421434Y-73831366D01*
X65353954Y-74127017D01*
X65353952Y-74127033D01*
X65320000Y-74428366D01*
X65320000Y-74731633D01*
X65353952Y-75032966D01*
X65353954Y-75032982D01*
X65421434Y-75328633D01*
X65421438Y-75328645D01*
X65521592Y-75614866D01*
X65521598Y-75614880D01*
X65653172Y-75888096D01*
X65814515Y-76144872D01*
X65941871Y-76304573D01*
X67083708Y-75162736D01*
X67180967Y-75296602D01*
X67303398Y-75419033D01*
X67437262Y-75516290D01*
X66259371Y-76694181D01*
X66198048Y-76727666D01*
X66171690Y-76730500D01*
X63808027Y-76730500D01*
X63740988Y-76710815D01*
X63695233Y-76658011D01*
X63685289Y-76588853D01*
X63714314Y-76525297D01*
X63730714Y-76509553D01*
X63766241Y-76481220D01*
X63855455Y-76410075D01*
X64050075Y-76215455D01*
X64221681Y-76000268D01*
X64368114Y-75767221D01*
X64487534Y-75519243D01*
X64578438Y-75259454D01*
X64639683Y-74991121D01*
X64670500Y-74717617D01*
X64670500Y-74442383D01*
X64670499Y-74442378D01*
X64670094Y-74438777D01*
X64670094Y-74438776D01*
X64639684Y-74168891D01*
X64639683Y-74168879D01*
X64578438Y-73900546D01*
X64487534Y-73640757D01*
X64368114Y-73392779D01*
X64221681Y-73159732D01*
X64050075Y-72944545D01*
X63855455Y-72749925D01*
X63640268Y-72578319D01*
X63407221Y-72431886D01*
X63407218Y-72431884D01*
X63159246Y-72312467D01*
X62899465Y-72221565D01*
X62899453Y-72221561D01*
X62631124Y-72160317D01*
X62631108Y-72160315D01*
X62357621Y-72129500D01*
X62357617Y-72129500D01*
X62082383Y-72129500D01*
X62082379Y-72129500D01*
X61808891Y-72160315D01*
X61808875Y-72160317D01*
X61540546Y-72221561D01*
X61540534Y-72221565D01*
X61280753Y-72312467D01*
X61280745Y-72312470D01*
X61089107Y-72404758D01*
X61083943Y-72405608D01*
X61079783Y-72408787D01*
X61049821Y-72411226D01*
X61020166Y-72416110D01*
X61015361Y-72414033D01*
X61010143Y-72414458D01*
X60983623Y-72400314D01*
X60956031Y-72388388D01*
X60951868Y-72383378D01*
X60948493Y-72381579D01*
X60940346Y-72369516D01*
X60927065Y-72353535D01*
X60923524Y-72347200D01*
X60896465Y-72281873D01*
X60838665Y-72195370D01*
X60836259Y-72191064D01*
X60829546Y-72161607D01*
X60820520Y-72132780D01*
X60820500Y-72130567D01*
X60820500Y-69788676D01*
X60840185Y-69721637D01*
X60856813Y-69701000D01*
X61009041Y-69548772D01*
X61070361Y-69515290D01*
X61072528Y-69514839D01*
X61073004Y-69514744D01*
X61169744Y-69495501D01*
X61288127Y-69446465D01*
X61394669Y-69375276D01*
X61485276Y-69284669D01*
X61556465Y-69178127D01*
X61605501Y-69059744D01*
X61630500Y-68934069D01*
X61630500Y-68805931D01*
X61630500Y-68805928D01*
X61605502Y-68680261D01*
X61605501Y-68680260D01*
X61605501Y-68680256D01*
X61556465Y-68561873D01*
X61556464Y-68561872D01*
X61556461Y-68561866D01*
X61485276Y-68455331D01*
X61485273Y-68455327D01*
X61394672Y-68364726D01*
X61394668Y-68364723D01*
X61288133Y-68293538D01*
X61288124Y-68293533D01*
X61169744Y-68244499D01*
X61169738Y-68244497D01*
X61044071Y-68219500D01*
X61044069Y-68219500D01*
X60915931Y-68219500D01*
X60915929Y-68219500D01*
X60790261Y-68244497D01*
X60790255Y-68244499D01*
X60671875Y-68293533D01*
X60671866Y-68293538D01*
X60565331Y-68364723D01*
X60565327Y-68364726D01*
X60474726Y-68455327D01*
X60474723Y-68455331D01*
X60403538Y-68561866D01*
X60403533Y-68561875D01*
X60354499Y-68680255D01*
X60354497Y-68680260D01*
X60335160Y-68777473D01*
X60302774Y-68839383D01*
X60301224Y-68840961D01*
X60012686Y-69129500D01*
X59919502Y-69222683D01*
X59919500Y-69222686D01*
X59853608Y-69336812D01*
X59819500Y-69464108D01*
X59819500Y-72130567D01*
X59799815Y-72197606D01*
X59798602Y-72199457D01*
X59743541Y-72281861D01*
X59743533Y-72281875D01*
X59694499Y-72400255D01*
X59694497Y-72400261D01*
X59669500Y-72525928D01*
X59669500Y-72525931D01*
X59669500Y-72654069D01*
X59669500Y-72654071D01*
X59669499Y-72654071D01*
X59694497Y-72779738D01*
X59694499Y-72779744D01*
X59743533Y-72898124D01*
X59743538Y-72898133D01*
X59814723Y-73004668D01*
X59814726Y-73004672D01*
X59905327Y-73095273D01*
X59905331Y-73095276D01*
X60011866Y-73166461D01*
X60011870Y-73166463D01*
X60011873Y-73166465D01*
X60023605Y-73171324D01*
X60036659Y-73176732D01*
X60091062Y-73220573D01*
X60113127Y-73286868D01*
X60095848Y-73354567D01*
X60094201Y-73357263D01*
X60071885Y-73392779D01*
X59952467Y-73640753D01*
X59861565Y-73900534D01*
X59861561Y-73900546D01*
X59800317Y-74168875D01*
X59800315Y-74168891D01*
X59769500Y-74442378D01*
X59769500Y-74717623D01*
X59787363Y-74876166D01*
X59775308Y-74944988D01*
X59727959Y-74996367D01*
X59660349Y-75013991D01*
X59593943Y-74992264D01*
X59576462Y-74977730D01*
X58602207Y-74003475D01*
X57426819Y-72828086D01*
X57393334Y-72766763D01*
X57390500Y-72740405D01*
X57390500Y-71209432D01*
X57410185Y-71142393D01*
X57411398Y-71140541D01*
X57466461Y-71058133D01*
X57466461Y-71058132D01*
X57466465Y-71058127D01*
X57515501Y-70939744D01*
X57540500Y-70814069D01*
X57540500Y-70685931D01*
X57540500Y-70685928D01*
X57515502Y-70560261D01*
X57515501Y-70560260D01*
X57515501Y-70560256D01*
X57466465Y-70441873D01*
X57466464Y-70441872D01*
X57466461Y-70441866D01*
X57395276Y-70335331D01*
X57395273Y-70335327D01*
X57304672Y-70244726D01*
X57304668Y-70244723D01*
X57198133Y-70173538D01*
X57198124Y-70173533D01*
X57079744Y-70124499D01*
X57079738Y-70124497D01*
X56954071Y-70099500D01*
X56954069Y-70099500D01*
X56825931Y-70099500D01*
X56825929Y-70099500D01*
X56700261Y-70124497D01*
X56700255Y-70124499D01*
X56581875Y-70173533D01*
X56581866Y-70173538D01*
X56475331Y-70244723D01*
X56475327Y-70244726D01*
X56384726Y-70335327D01*
X56384723Y-70335331D01*
X56313538Y-70441866D01*
X56313533Y-70441875D01*
X56264499Y-70560255D01*
X56264497Y-70560261D01*
X56239500Y-70685928D01*
X56239500Y-70685931D01*
X56239500Y-70814069D01*
X56239500Y-70814071D01*
X56239499Y-70814071D01*
X50250500Y-70814071D01*
X50250500Y-67644071D01*
X57429499Y-67644071D01*
X57454497Y-67769738D01*
X57454499Y-67769744D01*
X57503533Y-67888124D01*
X57503538Y-67888133D01*
X57574723Y-67994668D01*
X57574726Y-67994672D01*
X57665327Y-68085273D01*
X57665331Y-68085276D01*
X57771866Y-68156461D01*
X57771872Y-68156464D01*
X57771873Y-68156465D01*
X57890256Y-68205501D01*
X57890260Y-68205501D01*
X57890261Y-68205502D01*
X58015928Y-68230500D01*
X58015931Y-68230500D01*
X58144071Y-68230500D01*
X58228615Y-68213682D01*
X58269744Y-68205501D01*
X58388127Y-68156465D01*
X58494669Y-68085276D01*
X58585276Y-67994669D01*
X58656465Y-67888127D01*
X58705501Y-67769744D01*
X58717563Y-67709108D01*
X58730500Y-67644071D01*
X58730500Y-67515928D01*
X58705502Y-67390261D01*
X58705501Y-67390260D01*
X58705501Y-67390256D01*
X58656465Y-67271873D01*
X58656464Y-67271871D01*
X58656458Y-67271861D01*
X58601398Y-67189457D01*
X58580520Y-67122780D01*
X58580500Y-67120567D01*
X58580500Y-54508675D01*
X58600185Y-54441636D01*
X58616815Y-54420998D01*
X58897819Y-54139993D01*
X58959142Y-54106509D01*
X59028834Y-54111493D01*
X59084767Y-54153365D01*
X59109184Y-54218829D01*
X59109500Y-54227675D01*
X59109500Y-55112870D01*
X59109501Y-55112876D01*
X59115908Y-55172483D01*
X59166202Y-55307328D01*
X59166206Y-55307335D01*
X59252452Y-55422544D01*
X59252455Y-55422547D01*
X59367664Y-55508793D01*
X59367671Y-55508797D01*
X59502517Y-55559091D01*
X59502516Y-55559091D01*
X59509444Y-55559835D01*
X59562127Y-55565500D01*
X60326323Y-55565499D01*
X60393362Y-55585183D01*
X60414004Y-55601818D01*
X63589500Y-58777314D01*
X63682686Y-58870500D01*
X63796814Y-58936392D01*
X63924108Y-58970500D01*
X64570568Y-58970500D01*
X64637607Y-58990185D01*
X64639459Y-58991398D01*
X64721866Y-59046461D01*
X64721872Y-59046464D01*
X64721873Y-59046465D01*
X64840256Y-59095501D01*
X64840260Y-59095501D01*
X64840261Y-59095502D01*
X64965928Y-59120500D01*
X64965931Y-59120500D01*
X65094071Y-59120500D01*
X65178615Y-59103682D01*
X65219744Y-59095501D01*
X65338127Y-59046465D01*
X65444669Y-58975276D01*
X65535276Y-58884669D01*
X65606465Y-58778127D01*
X65655501Y-58659744D01*
X65680500Y-58534069D01*
X65680500Y-58405931D01*
X65680500Y-58405928D01*
X65655502Y-58280261D01*
X65655501Y-58280260D01*
X65655501Y-58280256D01*
X65606465Y-58161873D01*
X65606464Y-58161872D01*
X65606461Y-58161866D01*
X65535276Y-58055331D01*
X65535273Y-58055327D01*
X65444672Y-57964726D01*
X65444668Y-57964723D01*
X65338133Y-57893538D01*
X65338124Y-57893533D01*
X65219744Y-57844499D01*
X65219738Y-57844497D01*
X65094071Y-57819500D01*
X65094069Y-57819500D01*
X64965931Y-57819500D01*
X64965929Y-57819500D01*
X64840261Y-57844497D01*
X64840255Y-57844499D01*
X64721875Y-57893533D01*
X64721866Y-57893538D01*
X64639459Y-57948602D01*
X64572782Y-57969480D01*
X64570568Y-57969500D01*
X64248676Y-57969500D01*
X64181637Y-57949815D01*
X64160995Y-57933181D01*
X62208313Y-55980499D01*
X62174828Y-55919176D01*
X62179812Y-55849484D01*
X62221684Y-55793551D01*
X62257676Y-55774887D01*
X62382255Y-55734408D01*
X62536524Y-55655804D01*
X62676602Y-55554032D01*
X62799032Y-55431602D01*
X62900804Y-55291524D01*
X62979411Y-55137251D01*
X62981271Y-55132760D01*
X62982475Y-55133258D01*
X63018540Y-55080512D01*
X63082898Y-55053311D01*
X63151745Y-55065222D01*
X63203223Y-55112464D01*
X63206254Y-55117798D01*
X63299373Y-55257162D01*
X63417837Y-55375626D01*
X63488055Y-55422544D01*
X63557137Y-55468703D01*
X63711918Y-55532816D01*
X63866555Y-55563575D01*
X63876228Y-55565499D01*
X63876232Y-55565500D01*
X63876233Y-55565500D01*
X64043768Y-55565500D01*
X64043769Y-55565499D01*
X64208082Y-55532816D01*
X64362863Y-55468703D01*
X64502162Y-55375626D01*
X64620626Y-55257162D01*
X64713703Y-55117863D01*
X64777816Y-54963082D01*
X64810500Y-54798767D01*
X64810500Y-54081233D01*
X64777816Y-53916918D01*
X64723567Y-53785952D01*
X64720059Y-53753323D01*
X64715391Y-53720853D01*
X64716344Y-53718765D01*
X64716099Y-53716484D01*
X64730784Y-53687145D01*
X64744416Y-53657297D01*
X64746346Y-53656056D01*
X64747374Y-53654004D01*
X64775589Y-53637263D01*
X64803194Y-53619523D01*
X64806223Y-53619087D01*
X64807463Y-53618352D01*
X64838129Y-53614500D01*
X65081871Y-53614500D01*
X65148910Y-53634185D01*
X65194665Y-53686989D01*
X65204609Y-53756147D01*
X65196432Y-53785953D01*
X65142184Y-53916917D01*
X65142182Y-53916925D01*
X65109500Y-54081228D01*
X65109500Y-54798771D01*
X65142182Y-54963074D01*
X65142184Y-54963082D01*
X65206295Y-55117860D01*
X65299373Y-55257162D01*
X65417837Y-55375626D01*
X65488055Y-55422544D01*
X65557137Y-55468703D01*
X65711918Y-55532816D01*
X65866555Y-55563575D01*
X65876228Y-55565499D01*
X65876232Y-55565500D01*
X65876233Y-55565500D01*
X66043768Y-55565500D01*
X66043769Y-55565499D01*
X66208082Y-55532816D01*
X66362863Y-55468703D01*
X66502162Y-55375626D01*
X66620626Y-55257162D01*
X66713703Y-55117863D01*
X66777816Y-54963082D01*
X66810500Y-54798767D01*
X66810500Y-54081233D01*
X66777816Y-53916918D01*
X66723567Y-53785952D01*
X66720059Y-53753323D01*
X66715391Y-53720853D01*
X66716344Y-53718765D01*
X66716099Y-53716484D01*
X66730784Y-53687145D01*
X66744416Y-53657297D01*
X66746346Y-53656056D01*
X66747374Y-53654004D01*
X66775589Y-53637263D01*
X66803194Y-53619523D01*
X66806223Y-53619087D01*
X66807463Y-53618352D01*
X66838129Y-53614500D01*
X67081871Y-53614500D01*
X67148910Y-53634185D01*
X67194665Y-53686989D01*
X67204609Y-53756147D01*
X67196432Y-53785953D01*
X67142184Y-53916917D01*
X67142182Y-53916925D01*
X67109500Y-54081228D01*
X67109500Y-54798771D01*
X67142182Y-54963074D01*
X67142184Y-54963082D01*
X67206295Y-55117860D01*
X67299372Y-55257160D01*
X67299373Y-55257161D01*
X67299374Y-55257162D01*
X67417838Y-55375626D01*
X67417840Y-55375627D01*
X67422146Y-55379933D01*
X67420361Y-55381717D01*
X67453490Y-55430329D01*
X67459500Y-55468464D01*
X67459500Y-61005891D01*
X67493608Y-61133187D01*
X67526554Y-61190250D01*
X67559500Y-61247314D01*
X67559502Y-61247316D01*
X72841224Y-66529038D01*
X72874709Y-66590361D01*
X72875160Y-66592527D01*
X72894497Y-66689738D01*
X72894499Y-66689744D01*
X72943533Y-66808124D01*
X72943538Y-66808133D01*
X73014723Y-66914668D01*
X73014726Y-66914672D01*
X73105327Y-67005273D01*
X73105331Y-67005276D01*
X73211866Y-67076461D01*
X73211872Y-67076464D01*
X73211873Y-67076465D01*
X73330256Y-67125501D01*
X73394455Y-67138271D01*
X73427471Y-67144839D01*
X73444227Y-67153603D01*
X73462707Y-67157624D01*
X73487745Y-67176368D01*
X73489382Y-67177224D01*
X73490961Y-67178775D01*
X73573181Y-67260995D01*
X73606666Y-67322318D01*
X73609500Y-67348676D01*
X73609500Y-68860567D01*
X73589815Y-68927606D01*
X73588602Y-68929457D01*
X73533541Y-69011861D01*
X73533533Y-69011875D01*
X73484499Y-69130255D01*
X73484497Y-69130261D01*
X73459500Y-69255928D01*
X73459500Y-69255931D01*
X73459500Y-69384069D01*
X73459500Y-69384071D01*
X73459499Y-69384071D01*
X73484497Y-69509738D01*
X73484499Y-69509744D01*
X73533533Y-69628124D01*
X73533538Y-69628133D01*
X73604723Y-69734668D01*
X73604726Y-69734672D01*
X73695327Y-69825273D01*
X73695331Y-69825276D01*
X73801866Y-69896461D01*
X73801872Y-69896464D01*
X73801873Y-69896465D01*
X73920256Y-69945501D01*
X73920260Y-69945501D01*
X73920261Y-69945502D01*
X74045928Y-69970500D01*
X74045931Y-69970500D01*
X74174071Y-69970500D01*
X74258615Y-69953682D01*
X74299744Y-69945501D01*
X74418127Y-69896465D01*
X74524669Y-69825276D01*
X74615276Y-69734669D01*
X74686465Y-69628127D01*
X74735501Y-69509744D01*
X74760500Y-69384069D01*
X74760500Y-69255931D01*
X74760500Y-69255928D01*
X74735502Y-69130261D01*
X74735501Y-69130260D01*
X74735501Y-69130256D01*
X74686465Y-69011873D01*
X74686464Y-69011871D01*
X74686458Y-69011861D01*
X74631398Y-68929457D01*
X74610520Y-68862780D01*
X74610500Y-68860567D01*
X74610500Y-67024110D01*
X74610500Y-67024108D01*
X74576392Y-66896814D01*
X74510500Y-66782686D01*
X74417314Y-66689500D01*
X74198775Y-66470961D01*
X74165290Y-66409638D01*
X74164839Y-66407471D01*
X74145502Y-66310263D01*
X74145501Y-66310256D01*
X74096465Y-66191873D01*
X74096464Y-66191872D01*
X74096461Y-66191866D01*
X74025276Y-66085331D01*
X74025273Y-66085327D01*
X73934672Y-65994726D01*
X73934668Y-65994723D01*
X73828133Y-65923538D01*
X73828124Y-65923533D01*
X73709744Y-65874499D01*
X73709738Y-65874497D01*
X73612527Y-65855160D01*
X73550616Y-65822774D01*
X73549038Y-65821224D01*
X68496819Y-60769005D01*
X68463334Y-60707682D01*
X68460500Y-60681324D01*
X68460500Y-57414071D01*
X72199499Y-57414071D01*
X72224497Y-57539738D01*
X72224499Y-57539744D01*
X72273533Y-57658124D01*
X72273538Y-57658133D01*
X72344723Y-57764668D01*
X72344726Y-57764672D01*
X72435327Y-57855273D01*
X72435331Y-57855276D01*
X72541866Y-57926461D01*
X72541872Y-57926464D01*
X72541873Y-57926465D01*
X72660256Y-57975501D01*
X72660260Y-57975501D01*
X72660261Y-57975502D01*
X72785928Y-58000500D01*
X72785931Y-58000500D01*
X72914071Y-58000500D01*
X72998615Y-57983682D01*
X73039744Y-57975501D01*
X73158127Y-57926465D01*
X73240541Y-57871398D01*
X73307218Y-57850520D01*
X73309432Y-57850500D01*
X75727758Y-57850500D01*
X75794797Y-57870185D01*
X75840552Y-57922989D01*
X75842319Y-57927047D01*
X75861295Y-57972860D01*
X75954373Y-58112162D01*
X76072837Y-58230626D01*
X76121172Y-58262922D01*
X76212137Y-58323703D01*
X76366918Y-58387816D01*
X76531228Y-58420499D01*
X76531232Y-58420500D01*
X76531233Y-58420500D01*
X77248768Y-58420500D01*
X77248769Y-58420499D01*
X77413082Y-58387816D01*
X77567863Y-58323703D01*
X77707162Y-58230626D01*
X77825626Y-58112162D01*
X77918703Y-57972863D01*
X77982816Y-57818082D01*
X78015500Y-57653767D01*
X78015500Y-57486233D01*
X77982816Y-57321918D01*
X77918703Y-57167137D01*
X77887537Y-57120494D01*
X77825626Y-57027837D01*
X77707162Y-56909373D01*
X77567860Y-56816295D01*
X77413082Y-56752184D01*
X77413074Y-56752182D01*
X77248771Y-56719500D01*
X77248767Y-56719500D01*
X76531233Y-56719500D01*
X76531228Y-56719500D01*
X76366925Y-56752182D01*
X76366917Y-56752184D01*
X76212140Y-56816295D01*
X76212129Y-56816301D01*
X76193722Y-56828601D01*
X76127045Y-56849480D01*
X76124830Y-56849500D01*
X73309432Y-56849500D01*
X73242393Y-56829815D01*
X73240541Y-56828602D01*
X73158133Y-56773538D01*
X73158124Y-56773533D01*
X73039744Y-56724499D01*
X73039738Y-56724497D01*
X72914071Y-56699500D01*
X72914069Y-56699500D01*
X72785931Y-56699500D01*
X72785929Y-56699500D01*
X72660261Y-56724497D01*
X72660255Y-56724499D01*
X72541875Y-56773533D01*
X72541866Y-56773538D01*
X72435331Y-56844723D01*
X72435327Y-56844726D01*
X72344726Y-56935327D01*
X72344723Y-56935331D01*
X72273538Y-57041866D01*
X72273533Y-57041875D01*
X72224499Y-57160255D01*
X72224497Y-57160261D01*
X72199500Y-57285928D01*
X72199500Y-57285931D01*
X72199500Y-57414069D01*
X72199500Y-57414071D01*
X72199499Y-57414071D01*
X68460500Y-57414071D01*
X68460500Y-55468464D01*
X68480185Y-55401425D01*
X68498630Y-55380709D01*
X68497854Y-55379933D01*
X68502158Y-55375628D01*
X68502162Y-55375626D01*
X68620626Y-55257162D01*
X68713703Y-55117863D01*
X68777816Y-54963082D01*
X68810500Y-54798767D01*
X68810500Y-54297675D01*
X68816738Y-54276429D01*
X68818318Y-54254341D01*
X68826390Y-54243557D01*
X68830185Y-54230636D01*
X68846918Y-54216136D01*
X68860190Y-54198408D01*
X68872810Y-54193700D01*
X68882989Y-54184881D01*
X68904906Y-54181729D01*
X68925654Y-54173991D01*
X68938814Y-54176853D01*
X68952147Y-54174937D01*
X68972290Y-54184136D01*
X68993927Y-54188843D01*
X69011652Y-54202111D01*
X69015703Y-54203962D01*
X69022181Y-54209994D01*
X69073181Y-54260994D01*
X69106666Y-54322317D01*
X69109500Y-54348675D01*
X69109500Y-54798771D01*
X69142182Y-54963074D01*
X69142184Y-54963082D01*
X69206295Y-55117860D01*
X69299373Y-55257162D01*
X69417837Y-55375626D01*
X69488055Y-55422544D01*
X69557137Y-55468703D01*
X69711918Y-55532816D01*
X69866555Y-55563575D01*
X69876228Y-55565499D01*
X69876232Y-55565500D01*
X69876233Y-55565500D01*
X70043768Y-55565500D01*
X70043769Y-55565499D01*
X70208082Y-55532816D01*
X70362863Y-55468703D01*
X70502162Y-55375626D01*
X70620626Y-55257162D01*
X70674257Y-55176898D01*
X75714500Y-55176898D01*
X75714500Y-55963102D01*
X75720126Y-56009954D01*
X75725122Y-56051561D01*
X75780639Y-56192343D01*
X75872077Y-56312922D01*
X75992656Y-56404360D01*
X75992657Y-56404360D01*
X75992658Y-56404361D01*
X76133436Y-56459877D01*
X76221898Y-56470500D01*
X76221903Y-56470500D01*
X77558097Y-56470500D01*
X77558102Y-56470500D01*
X77646564Y-56459877D01*
X77787342Y-56404361D01*
X77907922Y-56312922D01*
X77999361Y-56192342D01*
X78054877Y-56051564D01*
X78065500Y-55963102D01*
X78065500Y-55176898D01*
X78054877Y-55088436D01*
X77999361Y-54947658D01*
X77999360Y-54947657D01*
X77999360Y-54947656D01*
X77907922Y-54827077D01*
X77787343Y-54735639D01*
X77646561Y-54680122D01*
X77600926Y-54674642D01*
X77558102Y-54669500D01*
X76221898Y-54669500D01*
X76182853Y-54674188D01*
X76133438Y-54680122D01*
X75992656Y-54735639D01*
X75872077Y-54827077D01*
X75780639Y-54947656D01*
X75725122Y-55088438D01*
X75719261Y-55137251D01*
X75714500Y-55176898D01*
X70674257Y-55176898D01*
X70713703Y-55117863D01*
X70777816Y-54963082D01*
X70810500Y-54798767D01*
X70810500Y-54081233D01*
X70777816Y-53916918D01*
X70723568Y-53785953D01*
X70713704Y-53762139D01*
X70709700Y-53756147D01*
X70628208Y-53634185D01*
X70620626Y-53622837D01*
X70502162Y-53504373D01*
X70362860Y-53411295D01*
X70208082Y-53347184D01*
X70208074Y-53347182D01*
X70043771Y-53314500D01*
X70043767Y-53314500D01*
X69876233Y-53314500D01*
X69876228Y-53314500D01*
X69711925Y-53347181D01*
X69711917Y-53347184D01*
X69691642Y-53355582D01*
X69622173Y-53363048D01*
X69559695Y-53331771D01*
X69556513Y-53328700D01*
X68941316Y-52713502D01*
X68941315Y-52713501D01*
X68941314Y-52713500D01*
X68882464Y-52679523D01*
X68827187Y-52647608D01*
X68763539Y-52630554D01*
X68699892Y-52613500D01*
X59281893Y-52613500D01*
X59150108Y-52613500D01*
X59022812Y-52647608D01*
X58908686Y-52713500D01*
X58908683Y-52713502D01*
X57679502Y-53942683D01*
X57679500Y-53942686D01*
X57613608Y-54056812D01*
X57579500Y-54184108D01*
X57579500Y-67120567D01*
X57559815Y-67187606D01*
X57558602Y-67189457D01*
X57503541Y-67271861D01*
X57503533Y-67271875D01*
X57454499Y-67390255D01*
X57454497Y-67390261D01*
X57429500Y-67515928D01*
X57429500Y-67515931D01*
X57429500Y-67644069D01*
X57429500Y-67644071D01*
X57429499Y-67644071D01*
X50250500Y-67644071D01*
X50250500Y-57126898D01*
X51974500Y-57126898D01*
X51974500Y-57913102D01*
X51978763Y-57948602D01*
X51985122Y-58001561D01*
X52040639Y-58142343D01*
X52132077Y-58262922D01*
X52252656Y-58354360D01*
X52252657Y-58354360D01*
X52252658Y-58354361D01*
X52393436Y-58409877D01*
X52481898Y-58420500D01*
X52481903Y-58420500D01*
X53818097Y-58420500D01*
X53818102Y-58420500D01*
X53906564Y-58409877D01*
X54047342Y-58354361D01*
X54167922Y-58262922D01*
X54259361Y-58142342D01*
X54314877Y-58001564D01*
X54325500Y-57913102D01*
X54325500Y-57126898D01*
X54314877Y-57038436D01*
X54259361Y-56897658D01*
X54259360Y-56897657D01*
X54259360Y-56897656D01*
X54167922Y-56777077D01*
X54047343Y-56685639D01*
X53906561Y-56630122D01*
X53860926Y-56624642D01*
X53818102Y-56619500D01*
X52481898Y-56619500D01*
X52442853Y-56624188D01*
X52393438Y-56630122D01*
X52252656Y-56685639D01*
X52132077Y-56777077D01*
X52040639Y-56897656D01*
X51985122Y-57038438D01*
X51979188Y-57087853D01*
X51974500Y-57126898D01*
X50250500Y-57126898D01*
X50250500Y-55436228D01*
X52024500Y-55436228D01*
X52024500Y-55603771D01*
X52057182Y-55768074D01*
X52057184Y-55768082D01*
X52121295Y-55922860D01*
X52214373Y-56062162D01*
X52332837Y-56180626D01*
X52425494Y-56242537D01*
X52472137Y-56273703D01*
X52626918Y-56337816D01*
X52791228Y-56370499D01*
X52791232Y-56370500D01*
X52791233Y-56370500D01*
X53508768Y-56370500D01*
X53508769Y-56370499D01*
X53673082Y-56337816D01*
X53827863Y-56273703D01*
X53967162Y-56180626D01*
X54085626Y-56062162D01*
X54178703Y-55922863D01*
X54242816Y-55768082D01*
X54275500Y-55603767D01*
X54275500Y-55436233D01*
X54242816Y-55271918D01*
X54179004Y-55117863D01*
X54178704Y-55117139D01*
X54175580Y-55112464D01*
X54136056Y-55053311D01*
X54085626Y-54977837D01*
X53967162Y-54859373D01*
X53827860Y-54766295D01*
X53673082Y-54702184D01*
X53673074Y-54702182D01*
X53508771Y-54669500D01*
X53508767Y-54669500D01*
X52791233Y-54669500D01*
X52791228Y-54669500D01*
X52626925Y-54702182D01*
X52626917Y-54702184D01*
X52472139Y-54766295D01*
X52332837Y-54859373D01*
X52214373Y-54977837D01*
X52121295Y-55117139D01*
X52057184Y-55271917D01*
X52057182Y-55271925D01*
X52024500Y-55436228D01*
X50250500Y-55436228D01*
X50250500Y-52040060D01*
X50270185Y-51973021D01*
X50322989Y-51927266D01*
X50392147Y-51917322D01*
X50455703Y-51946347D01*
X50492430Y-52001739D01*
X50521116Y-52090025D01*
X50610476Y-52265405D01*
X50726172Y-52424646D01*
X50865354Y-52563828D01*
X51024595Y-52679524D01*
X51091277Y-52713500D01*
X51199970Y-52768882D01*
X51199972Y-52768882D01*
X51199975Y-52768884D01*
X51230752Y-52778884D01*
X51387173Y-52829709D01*
X51581578Y-52860500D01*
X51581583Y-52860500D01*
X51778422Y-52860500D01*
X51972826Y-52829709D01*
X52160025Y-52768884D01*
X52335405Y-52679524D01*
X52494646Y-52563828D01*
X52633828Y-52424646D01*
X52749524Y-52265405D01*
X52838884Y-52090025D01*
X52899709Y-51902826D01*
X52911629Y-51827568D01*
X52930500Y-51708422D01*
X52930500Y-51511577D01*
X52899709Y-51317173D01*
X52855118Y-51179939D01*
X52838884Y-51129975D01*
X52838882Y-51129972D01*
X52838882Y-51129970D01*
X52754619Y-50964595D01*
X52749524Y-50954595D01*
X52633828Y-50795354D01*
X52494646Y-50656172D01*
X52335405Y-50540476D01*
X52226496Y-50484984D01*
X52175701Y-50437011D01*
X52158906Y-50369190D01*
X52181443Y-50303055D01*
X52236158Y-50259603D01*
X52282792Y-50250500D01*
X77816834Y-50250500D01*
X77883873Y-50270185D01*
G37*
%TD.AperFunction*%
%TD*%
M02*
